<svg width="50" height="50" fill="none" xmlns="http://www.w3.org/2000/svg"><g clip-path="url(#clip0)" fill="#000" opacity=".2"><path d="M48.02 11.032L25.318.072a.733.733 0 00-.636 0L1.98 11.033a.732.732 0 00-.414.66v26.616c0 .281.16.537.414.66l22.702 10.96a.732.732 0 00.636 0l22.702-10.96a.733.733 0 00.414-.66V11.692a.733.733 0 00-.414-.66zM25 1.546l21.017 10.146-6.092 2.941a.722.722 0 00-.124-.078L18.926 4.478 25 1.546zm-7.728 3.76L38.26 15.437l-4.298 2.075L12.983 7.385l4.29-2.08zm21.478 11.52v7.671l-4.015 1.939v-7.67l4.015-1.94zm8.22 21.022L25.731 48.101V23.11l5.066-2.445a.732.732 0 10-.637-1.32L25 21.838l-2.03-.98a.732.732 0 10-.638 1.319l1.936.934v24.99L3.03 37.848v-24.99l16.172 7.808a.73.73 0 00.978-.341.732.732 0 00-.34-.978L3.982 11.692l7.276-3.513 22 10.622.011.013v8.789a.733.733 0 001.051.66l5.48-2.646a.732.732 0 00.414-.66V16.12l6.754-3.261v24.99z" stroke="#000" stroke-width=".2"/><path d="M9.075 35.008l-3.332-1.609a.732.732 0 10-.637 1.32l3.332 1.608a.729.729 0 00.978-.341.732.732 0 00-.341-.978zm3.065-1.996l-6.392-3.086a.732.732 0 10-.637 1.319l6.393 3.086a.73.73 0 00.978-.341.732.732 0 00-.341-.978z"/></g><defs><clipPath id="clip0"><path fill="#fff" d="M0 0h50v50H0z"/></clipPath></defs></svg>