<svg width="50" height="50" fill="none" xmlns="http://www.w3.org/2000/svg"><path d="M7.726 11.068l11.762-4.7a.956.956 0 00.607-.898V.95c0-.54-.449-.95-.976-.95-.528 0-.976.437-.976.95v3.878L6.962 9.296C4.325 10.35-1.213 12.558.21 20.288.42 21.366 2.53 39.599 3.639 49.1a.966.966 0 00.976.848h.105a.959.959 0 00.87-1.053C5.485 47.74 2.426 21.34 2.162 19.928c-1.028-5.701 2.163-7.499 5.564-8.86zm35.312-1.772L31.883 4.854V.95c0-.54-.448-.95-.976-.95a.96.96 0 00-.976.95v4.52c0 .385.238.745.607.899l11.762 4.7c3.375 1.36 6.592 3.158 5.538 8.86-.264 1.412-3.323 27.811-3.455 28.941a.945.945 0 00.87 1.053h.106c.5 0 .923-.36.975-.848 1.108-9.501 3.244-27.735 3.429-28.813 1.424-7.704-4.088-9.913-6.725-10.966z" fill="#181818" opacity=".2"/><path d="M40.533 20.03a.986.986 0 00-1.16.771c-.027.18-.29 1.413-.633 3.236H11.26c-.342-1.798-.606-3.056-.632-3.236a1.006 1.006 0 00-1.16-.77c-.528.103-.897.616-.792 1.13.027.154 3.297 16.435 3.376 20.416-1.134 3.39-1.266 7.267-1.266 7.421 0 .257.079.514.29.694.185.18.448.282.712.282h26.45c.264 0 .528-.102.712-.282a.979.979 0 00.29-.694c0-.154-.131-4.031-1.265-7.421.079-3.98 3.349-20.262 3.375-20.416.08-.54-.29-1.053-.817-1.13zm-2.163 5.907a162.468 162.468 0 00-.712 3.904c-2.98-.95-4.615-.026-6.329.924-1.477.848-3.164 1.798-6.329 1.926-3.165-.128-4.826-1.078-6.33-1.926-1.713-.976-3.348-1.9-6.328-.924-.238-1.361-.501-2.697-.712-3.904h26.74zm-2.4 15.794c0 .103.027.205.053.308.053.18.106.334.158.514-2.004.693-2.9.18-4.404-.668-1.476-.847-3.322-1.875-6.724-2.029h-.106c-3.375.129-5.221 1.181-6.698 2.029-1.503.847-2.4 1.361-4.404.668.053-.18.105-.334.158-.514.027-.103.053-.205.053-.308 0-1.72-.633-5.83-1.345-9.964 2.32-.822 3.35-.257 5.01.668 1.61.898 3.613 2.028 7.279 2.182h.105c3.666-.154 5.644-1.284 7.253-2.182 1.635-.925 2.69-1.516 5.01-.668-.765 4.134-1.398 8.243-1.398 9.964zm-23.127 6.343c.079-.873.21-2.234.527-3.672 2.77.873 4.272.025 5.855-.873 1.371-.77 2.9-1.644 5.775-1.773 2.875.129 4.43 1.002 5.775 1.773 1.134.641 2.215 1.258 3.719 1.258.633 0 1.345-.103 2.162-.36.29 1.438.449 2.8.528 3.673H12.843v-.026zM25 19.03a.96.96 0 00.976-.95v-6.935c0-.539-.448-.95-.976-.95a.96.96 0 00-.976.95v6.934c0 .514.422.95.976.95z" fill="#181818" opacity=".2"/></svg>