<svg width="146" height="246" fill="none" xmlns="http://www.w3.org/2000/svg"><path d="M110.15 0c.29.663.631 1.292 1.006 1.887.375.594.801 1.155 1.261 1.682a11.774 11.774 0 003.205 2.533c.596.322 1.21.611 1.841.866.324.12.631.238.954.34.324.102.648.204.972.29 1.313.356 2.676.611 4.04.781 1.381.17 2.762.289 4.177.374l2.113.102 2.148.085c1.432.05 2.881.102 4.364.204s2.966.238 4.518.51l.289.05.29.052.29.068.29.068c.375.085.767.187 1.142.289a27.29 27.29 0 012.267.713c1.5.544 2.949 1.241 4.347 2.09 1.381.85 2.693 1.87 3.853 3.01a27.923 27.923 0 011.67 1.8 23.273 23.273 0 011.449 1.972 24.93 24.93 0 012.267 4.266c.307.731.597 1.479.836 2.227.255.748.46 1.512.647 2.26a42.38 42.38 0 01.853 4.572c.187 1.53.29 3.06.324 4.572a50.86 50.86 0 010 2.278l-.017.543-.017.561c-.017.374-.017.731-.035 1.105-.034.73-.068 1.479-.119 2.21-.051.73-.102 1.461-.17 2.209a122.09 122.09 0 01-1.091 8.719c-.461 2.89-1.023 5.745-1.62 8.566a261.99 261.99 0 01-1.977 8.43c-.699 2.787-1.415 5.575-2.131 8.345-.716 2.77-1.449 5.54-2.131 8.311-.699 2.77-1.364 5.54-1.977 8.345a184.138 184.138 0 00-.887 4.198c-.136.697-.272 1.411-.409 2.108l-.392 2.124a91.741 91.741 0 01-.085-2.158c-.017-.714-.017-1.445-.017-2.176 0-1.445.051-2.89.119-4.334.137-2.89.392-5.779.716-8.65.324-2.873.716-5.729 1.159-8.584.426-2.855.904-5.677 1.364-8.498.938-5.642 1.875-11.251 2.557-16.843.341-2.787.631-5.592.818-8.362.051-.697.085-1.394.12-2.09a86.07 86.07 0 00.085-2.09c.017-.34.017-.698.034-1.038l.017-1.053c.017-.68 0-1.36 0-2.023-.068-2.685-.341-5.354-.921-7.886-.579-2.532-1.483-4.946-2.778-7.07a18.238 18.238 0 00-2.233-2.958 17.39 17.39 0 00-2.796-2.43 18.996 18.996 0 00-3.307-1.853 25.924 25.924 0 00-3.665-1.292 46.41 46.41 0 00-4.006-.798 250.424 250.424 0 00-4.228-.629l-1.074-.153-1.073-.17c-.716-.119-1.449-.22-2.165-.357a56.666 56.666 0 01-4.347-.935c-1.449-.39-2.881-.85-4.262-1.478a28.067 28.067 0 01-1.023-.493c-.341-.17-.665-.357-1.006-.544a16.224 16.224 0 01-1.892-1.292c-.29-.238-.579-.493-.869-.748a11.535 11.535 0 01-.784-.815 11.536 11.536 0 01-1.33-1.819A11.583 11.583 0 01110.15 0z" fill="#F2F2F2"/><path d="M147.857 38.496l-1.568 1.292c-.529.425-1.04.866-1.551 1.291-1.023.867-2.046 1.75-3.035 2.652a83.887 83.887 0 00-5.642 5.625c-1.756 1.955-3.392 3.994-4.841 6.136a43.9 43.9 0 00-3.751 6.696 39.75 39.75 0 00-2.437 7.156c-.597 2.447-.955 4.946-1.125 7.478-.171 2.532-.137 5.082.034 7.648.17 2.567.477 5.133.886 7.716.409 2.584.904 5.15 1.466 7.733.546 2.584 1.159 5.167 1.773 7.768 1.244 5.2 2.54 10.435 3.648 15.755.545 2.651 1.057 5.337 1.466 8.039.409 2.702.75 5.405.955 8.141.204 2.719.289 5.456.221 8.192a54.15 54.15 0 01-.256 4.079 38.69 38.69 0 01-.238 2.023 37.91 37.91 0 01-.307 2.005c-.051-.68-.119-1.342-.171-2.022-.068-.68-.136-1.343-.204-2.006a97.495 97.495 0 00-.529-3.977 119.949 119.949 0 00-1.483-7.852c-.579-2.6-1.227-5.184-1.926-7.75a302.637 302.637 0 00-2.199-7.682c-1.517-5.116-3.119-10.249-4.585-15.467-.733-2.617-1.432-5.235-2.046-7.903a106.245 106.245 0 01-1.602-8.107c-.427-2.736-.751-5.524-.87-8.328-.136-2.804-.085-5.643.222-8.481s.852-5.66 1.687-8.396a40.243 40.243 0 013.359-7.886 42.332 42.332 0 014.841-6.968 49.585 49.585 0 015.949-5.864 58.896 58.896 0 016.682-4.827c1.16-.73 2.336-1.41 3.546-2.056a46.537 46.537 0 011.807-.935c.597-.34 1.21-.646 1.824-.918zM77.471.833a12.432 12.432 0 01-1.534 4.113 11.571 11.571 0 01-1.33 1.818 11.924 11.924 0 01-1.653 1.564c-.597.476-1.228.918-1.892 1.292a8.521 8.521 0 01-1.006.578c-.341.17-.682.34-1.023.492-1.38.612-2.83 1.088-4.262 1.48-1.449.39-2.898.679-4.347.934-.715.136-1.449.238-2.164.357l-1.074.17-1.074.153c-1.432.204-2.847.39-4.228.629-1.38.22-2.727.475-4.006.798-.614.153-1.244.357-1.858.578-.614.221-1.21.46-1.807.714a20.157 20.157 0 00-3.307 1.853 17.372 17.372 0 00-2.796 2.43c-.835.9-1.585 1.887-2.233 2.957-1.295 2.125-2.199 4.538-2.778 7.07-.58 2.533-.87 5.201-.921 7.887a40.11 40.11 0 000 2.022l.017 1.054c0 .34.017.697.034 1.037.017.697.051 1.393.085 2.09.035.697.069 1.394.12 2.09.187 2.788.477 5.575.818 8.363.682 5.592 1.636 11.2 2.557 16.843.46 2.821.938 5.66 1.364 8.498.426 2.838.835 5.71 1.159 8.583.324 2.872.58 5.761.716 8.65.068 1.445.102 2.89.12 4.335 0 .731 0 1.444-.018 2.175a91.079 91.079 0 01-.085 2.159l-.392-2.125c-.137-.714-.273-1.41-.41-2.107-.29-1.411-.579-2.805-.886-4.198a282.391 282.391 0 00-1.977-8.345c-.699-2.77-1.415-5.54-2.131-8.311-.716-2.77-1.449-5.541-2.13-8.345a264.275 264.275 0 01-1.978-8.43 161.358 161.358 0 01-1.62-8.566c-.46-2.89-.835-5.796-1.09-8.72-.069-.73-.12-1.46-.171-2.209-.051-.73-.085-1.478-.12-2.21-.017-.373-.034-.73-.034-1.104l-.017-.56-.017-.545a50.556 50.556 0 010-2.277c.035-1.513.137-3.042.324-4.572.188-1.53.46-3.06.853-4.572.187-.765.409-1.513.647-2.26a35.12 35.12 0 01.836-2.227 26.265 26.265 0 012.267-4.266 23.45 23.45 0 011.449-1.971 20.94 20.94 0 011.67-1.802 22.583 22.583 0 013.853-3.008 23.75 23.75 0 014.347-2.09c.75-.273 1.5-.51 2.267-.715.375-.102.767-.187 1.142-.289l.29-.068.29-.068.29-.05.29-.052c1.534-.272 3.034-.407 4.517-.51 1.483-.101 2.932-.152 4.364-.203l2.148-.085 2.113-.102c1.415-.085 2.796-.187 4.177-.374 1.38-.17 2.727-.425 4.04-.782.324-.085.648-.187.972-.289a15.746 15.746 0 002.795-1.207 12.68 12.68 0 003.205-2.532c.46-.51.886-1.07 1.261-1.683.324-.646.665-1.274.972-1.937z" fill="#F2F2F2"/><path d="M39.764 39.329c.613.289 1.227.578 1.84.883.614.306 1.211.612 1.808.935a61.806 61.806 0 013.546 2.057c2.318 1.444 4.568 3.042 6.682 4.827a49.748 49.748 0 015.95 5.863 42.385 42.385 0 014.84 6.969 42.37 42.37 0 013.359 7.886 44.159 44.159 0 011.687 8.396c.307 2.838.358 5.676.222 8.48a79.174 79.174 0 01-.87 8.329c-.426 2.736-.988 5.439-1.602 8.107a191.394 191.394 0 01-2.046 7.903c-1.466 5.218-3.068 10.351-4.585 15.466-.767 2.567-1.5 5.116-2.2 7.683a171.02 171.02 0 00-1.925 7.75c-.58 2.6-1.074 5.217-1.483 7.852a105.927 105.927 0 00-.529 3.977l-.204 2.005c-.069.68-.12 1.343-.171 2.023a40.73 40.73 0 01-.307-2.006c-.085-.679-.17-1.342-.239-2.022a65.572 65.572 0 01-.255-4.079 73.05 73.05 0 01.221-8.192c.205-2.72.546-5.439.955-8.141.41-2.703.92-5.371 1.466-8.039 1.108-5.32 2.404-10.555 3.648-15.756.614-2.6 1.227-5.183 1.773-7.767.545-2.583 1.057-5.167 1.466-7.733.41-2.583.716-5.15.886-7.716.17-2.567.188-5.116.034-7.648-.17-2.533-.528-5.031-1.125-7.479a39.81 39.81 0 00-2.437-7.155 44.703 44.703 0 00-3.75-6.696 55.09 55.09 0 00-4.842-6.136 76.497 76.497 0 00-5.642-5.626 112.67 112.67 0 00-3.035-2.65c-.511-.443-1.04-.868-1.55-1.293l-1.586-1.257zM98.49 3.654a61.836 61.836 0 00-1.824 4.42 60.611 60.611 0 00-1.45 4.52 68.58 68.58 0 00-1.857 9.229c-.41 3.11-.63 6.22-.716 9.348-.068 3.127 0 6.254.17 9.382.358 6.254 1.142 12.492 2.131 18.712.495 3.11 1.04 6.22 1.603 9.348.562 3.11 1.159 6.237 1.721 9.399.137.781.273 1.58.41 2.362l.204 1.19.102.612.103.611a92.94 92.94 0 01.63 4.878c.341 3.247.529 6.51.597 9.773.119 6.51-.256 13.002-1.074 19.426-.818 6.425-2.046 12.781-3.733 19.002a134.408 134.408 0 01-2.881 9.229 103.04 103.04 0 01-1.739 4.504 84.836 84.836 0 01-1.96 4.402c.34-1.564.682-3.128.988-4.691a223.597 223.597 0 002.404-14.073c.443-3.127.818-6.271 1.108-9.399.307-3.144.545-6.271.733-9.415.17-3.145.29-6.272.307-9.399.034-3.127-.017-6.255-.154-9.365-.136-3.11-.358-6.22-.698-9.297a102.03 102.03 0 00-.597-4.606l-.085-.578-.086-.578-.187-1.172-.392-2.346a780.662 780.662 0 01-1.551-9.45 252.11 252.11 0 01-1.313-9.551 165.042 165.042 0 01-.87-9.654c-.187-3.23-.29-6.475-.238-9.722.051-3.246.239-6.492.614-9.738.375-3.23.937-6.442 1.721-9.603a58.143 58.143 0 013.103-9.229 51.518 51.518 0 012.148-4.35 37 37 0 012.608-4.13zm8.779 169.705c7.501-4.844 41.458-18.237 42.566-9.535.034 8.991-31.059 8.753-31.128 22.707.12 1.921 2.08 2.855 3.699 3.314 17.576 2.788 30.344-11.897 32.713-15.891 8.166-12.526 15.223-25.715 23.354-38.258 1.5-2.277 3.921-5.337 7.04-4.385 2.779 1.445 1.978 5.235.955 7.58-8.148 15.535-11.524 33.38-22.024 47.725-4.211 4.861-9.188 9.008-14.268 12.934-19.11 14.837-55.675 16.979-63.653 46.45-10.756-27.33-4.142-57.429 20.746-72.641z" fill="#F2F2F2"/><path d="M92.643 183.828c-8.847 10.13-13.228 23.081-13.228 36.695-13.893-7.988-31.008-12.322-42.157-20.99-5.08-3.926-10.057-8.073-14.268-12.934C12.472 172.271 9.097 154.425.95 138.891c-1.023-2.345-1.824-6.135.954-7.58 3.12-.969 5.54 2.09 7.04 4.385 8.132 12.543 15.206 25.732 23.372 38.258 2.37 3.994 15.137 18.695 32.712 15.908 1.62-.476 3.58-1.394 3.7-3.314-.069-13.954-31.179-13.733-31.128-22.707 1.108-8.702 35.065 4.691 42.583 9.535 4.824 2.94 8.983 6.475 12.46 10.452z" fill="#F2F2F2"/><path d="M24.132 142.307c-.835-5.438-2.608-11.081-6.7-15.007-.75-.884-2.897-1.649-3.05.17-.836 5.235.221 10.605 1.125 15.789 2.659 6.612 6.63 12.594 10.16 18.781.068-6.612-.546-13.206-1.535-19.733zm2.506 21.262a454.715 454.715 0 003 4.861c1.705-3.807 2.114-8.056 2.336-12.169.273-4.538-.682-9.297-3.393-13.002-.8-1.206-1.96-.442-1.977.765-.886 6.476-.324 13.036.034 19.545z" fill="#F2F2F2"/></svg>