<svg width="97" height="40" fill="none" xmlns="http://www.w3.org/2000/svg"><path d="M36.95 39.734c-.353-.048-.705-.123-1.059-.135-.302-.01-.497-.132-.617-.397-.144-.32-.308-.633-.416-.965-.107-.328-.017-.495.286-.644.711-.351 1.471-.463 2.254-.435.292.01.47.183.562.47.134.418.288.83.44 1.242.117.317.037.53-.28.664-.188.08-.387.134-.58.2h-.59z" fill="#F4AB01"/><path d="M85.691 16.633c-.007.13-.022.258-.02.387.04 2.033.083 4.066.122 6.099.012.607.02 1.215.02 1.823.001.385-.082.464-.461.464-1.254.001-2.507.002-3.761 0-.365 0-.45-.074-.444-.445.013-.84.032-1.68.068-2.519.098-2.296.224-4.592.145-6.893-.057-1.711-.122-3.423-.18-5.135-.01-.32-.01-.64-.008-.961.001-.31.046-.36.357-.39.173-.018.348-.02.522-.023a14.382 14.382 0 002.338-.25c.192-.034.39-.04.585-.061a.42.42 0 01.4.176c.087.113.177.224.26.34l5.797 7.982c.09.125.18.253.288.36.104.103.233.18.352.27.16-.13.166-.277.168-.417.007-.442.022-.884.005-1.325-.072-1.933-.156-3.865-.233-5.797-.012-.298-.026-.597-.012-.894.015-.302.094-.37.381-.378 1.264-.041 2.527-.084 3.79-.117.477-.013.51.018.498.5-.042 1.602-.095 3.204-.141 4.806-.032 1.104-.079 2.209-.084 3.313-.013 2.432-.004 4.864-.004 7.296 0 .558-.002.542-.534.583-1.058.08-2.112.022-3.168-.037a.618.618 0 01-.462-.21 6.074 6.074 0 01-.268-.334l-5.974-7.972c-.075-.1-.167-.188-.251-.282l-.09.041zM12.384 17.68c0-1.837-.456-2.96-1.331-3.808-1.333-1.293-3.473-1.346-4.858-.115-1.742 1.549-1.891 3.822-1.106 5.503 1.18 2.527 4.348 2.797 5.988 1.076.851-.892 1.31-1.94 1.307-2.656zm-3.856 8.193c-4.615.029-7.555-3.486-8.123-6.85-.365-2.16-.185-4.264.885-6.208 1.146-2.082 2.822-3.541 5.15-4.078 2.495-.575 4.867-.257 6.956 1.344 1.847 1.416 2.959 3.304 3.285 5.642.265 1.893.1 3.741-.748 5.466-1.211 2.466-3.139 4.03-5.846 4.523-.513.093-1.04.11-1.56.16zm48.668-8.54c.004-1.444-.405-2.552-1.318-3.449-1.325-1.302-3.467-1.363-4.856-.138-1.759 1.552-1.907 3.843-1.112 5.528 1.188 2.518 4.354 2.782 5.993 1.05.84-.885 1.294-1.924 1.293-2.991zm-3.859 8.52c-4.609.048-7.55-3.465-8.118-6.832-.364-2.162-.184-4.264.887-6.209 1.146-2.081 2.824-3.536 5.15-4.076 2.336-.543 4.589-.297 6.61 1.098 2.04 1.407 3.264 3.371 3.625 5.859.276 1.902.109 3.763-.744 5.498-1.212 2.466-3.142 4.023-5.847 4.526a5.677 5.677 0 01-.584.079c-.325.025-.652.038-.979.057zm-30.271-9.289c.083.037.12.062.162.07a7.64 7.64 0 002.18.12 3.856 3.856 0 001.01-.25c.52-.204.852-.613.966-1.169.057-.277.079-.572.06-.855-.08-1.113-.576-1.722-1.605-1.977-.65-.162-1.315-.188-1.981-.144a2.58 2.58 0 00-.45.083c-.201.052-.314.184-.32.403-.005.2-.02.398-.021.597-.002 1.037-.001 2.074-.001 3.122zm9.3 8.8c-.278.034-.479.078-.681.083-1.275.028-2.55.066-3.823-.032-.29-.022-.441-.147-.548-.42a479.51 479.51 0 00-1.79-4.482c-.223-.554-.525-.743-1.108-.73-.326.007-.654.002-.98.01-.226.006-.272.04-.295.264a4 4 0 00-.017.661c.079 1.202.168 2.403.25 3.604.018.275.027.552.025.828-.002.22-.03.247-.246.262-.391.025-.783.05-1.175.055-.785.008-1.57.006-2.355-.002a5.71 5.71 0 01-.78-.064c-.244-.036-.34-.154-.339-.406a58.23 58.23 0 01.03-1.624c.07-2.198.187-4.395.206-6.593.016-1.955-.071-3.91-.122-5.865-.012-.464-.058-.926-.095-1.389-.027-.353.044-.458.396-.5.248-.03.499-.053.75-.058 2.091-.046 4.183-.102 6.275-.125 1.064-.012 2.106.156 3.097.578a5.435 5.435 0 011.62 1.042c.838.79 1.265 1.786 1.364 2.926.07.818.022 1.633-.154 2.44a3.971 3.971 0 01-1.09 2.002c-.286.286-.603.54-.908.806-.066.058-.142.104-.207.163-.174.16-.185.211-.083.428.322.676.652 1.348.969 2.027a435.588 435.588 0 011.59 3.451c.085.186.133.389.224.66zm8.604-12.87c-1.866-.039-3.725.09-5.583.25-.423.036-.844.098-1.268.12-.38.02-.522-.123-.52-.503.002-.173.033-.353.085-.519.3-.947.683-1.862 1.099-2.763.146-.317.363-.433.696-.42 1.002.037 2.004.061 3.007.088 1.266.035 2.527-.06 3.787-.167.88-.074 1.758-.158 2.637-.234.408-.034.518.071.48.488-.02.207-.053.426-.14.61-.394.839-.537 1.743-.707 2.642-.071.377-.107.406-.5.407-1.024.003-2.049 0-3.073 0z" fill="#2EC8A6"/><path d="M66.97 16.23c.58.034 1.243.084 1.872.329.221.086.443.192.635.33.385.278.544.68.518 1.154-.013.25-.108.342-.355.316a3.007 3.007 0 01-.54-.124c-.176-.053-.347-.13-.522-.19-.267-.091-.495-.034-.668.2-.091.123-.172.254-.263.378-.136.186-.265.38-.417.552-.832.934-2.522.745-2.998-.597a4.476 4.476 0 01-.205-.832c-.044-.296.049-.423.332-.525.204-.075.416-.13.625-.19.423-.125.817-.295 1.136-.623.187-.192.262-.193.85-.178zm-27.185 1.15c.773.078 1.556.125 2.329.243.643.099.72.304.435.907-.213.45-.245.9-.084 1.378.234.696-.047 1.074-.778 1.039a10.03 10.03 0 01-1.23-.143c-.523-.09-1.042-.21-1.56-.324a1.141 1.141 0 01-.304-.117c-.262-.144-.311-.26-.195-.536a1.29 1.29 0 00-.017-1.057 4.97 4.97 0 01-.12-.308c-.163-.458.01-.824.48-.936.336-.08.687-.098 1.044-.145zm1.45 7.49c-.191-.05-.452-.096-.694-.19a51.486 51.486 0 01-1.995-.816 1.595 1.595 0 01-.469-.349c-.23-.233-.221-.502.026-.718.245-.214.37-.482.423-.796.035-.207.07-.414.119-.617.068-.28.2-.401.484-.393.347.01.705.012 1.035.103.618.17 1.22.4 1.825.612.133.046.258.119.38.191.393.235.477.577.158.897-.444.445-.662.958-.709 1.582-.029.384-.213.52-.583.494zm-1.953-7.82c-.281 0-.65.005-1.02-.002-.369-.006-.483-.146-.441-.522.004-.043.014-.087.023-.13.104-.5.062-.962-.302-1.359a1.207 1.207 0 01-.196-.34c-.1-.232-.058-.384.167-.496.634-.316 1.293-.487 2.016-.403.546.063 1.056.244 1.578.386.316.086.357.139.363.457.008.445.095.85.433 1.171a.778.778 0 01.162.284c.082.21.044.371-.137.493-.29.195-.593.363-.96.375-.533.018-1.064.053-1.686.085zm-.305 10.904c-.05-.014-.179-.04-.302-.08-.685-.233-1.313-.585-1.918-.977a3.32 3.32 0 01-.506-.416c-.357-.348-.348-.523-.026-.895.163-.189.304-.401.433-.616.077-.13.114-.285.168-.43.03-.082.053-.168.089-.248.095-.208.2-.283.413-.226.682.182 1.367.36 2.037.582.517.171.931.516 1.264.957.196.26.19.4-.055.622-.13.118-.27.223-.41.33-.252.193-.428.432-.471.761-.012.097-.05.192-.085.284-.115.291-.236.367-.631.352zm-3.325 5.873a8.297 8.297 0 01-2.472-.52 1.265 1.265 0 01-.12-.052c-.448-.222-.527-.392-.363-.869.162-.47.29-.943.335-1.443.038-.42.338-.65.753-.592.906.126 1.796.33 2.664.624.546.185.68.676.3 1.117-.222.258-.305.523-.23.85a.954.954 0 01.018.197c.006.448-.209.676-.648.687-.076.002-.153 0-.237 0zM36.456.38c.096.199.129.342.018.507-.462.691-.485 1.471-.413 2.264.016.175.067.347.096.52.128.77.587 1.266 1.277 1.553.27.113.562.168.841.26.237.079.483.146.7.266.417.232.651.608.7 1.093.012.12.015.24-.111.322-.364.24-.724.487-1.083.73-.39-.195-.276-.672-.57-.94-.058.214-.102.412-.168.602-.042.122-.096.25-.178.347-.25.294-.512.29-.776.01-.283-.3-.489-.65-.613-1.045-.087-.276-.033-.36.228-.47.066-.029.15-.113.15-.173 0-.06-.08-.148-.145-.177a1.603 1.603 0 00-.404-.117c-.24-.038-.386-.17-.492-.386-.194-.395-.188-.815-.155-1.233a6.362 6.362 0 00-.023-1.055c-.099-1.13.296-2.072 1.121-2.879zm.429 30.33c-.043-.012-.154-.024-.25-.068-.795-.36-1.587-.728-2.382-1.09a.905.905 0 01-.414-.36c-.155-.254-.147-.445.055-.659.112-.118.237-.23.371-.322a1.12 1.12 0 00.467-.655 2.18 2.18 0 01.133-.373c.14-.292.35-.402.666-.352.128.02.256.054.38.092a6.92 6.92 0 012.165 1.136c.12.092.23.206.317.33.183.26.149.493-.09.703a1.87 1.87 0 01-.298.203.996.996 0 00-.513.764c-.014.098-.03.197-.06.29-.086.265-.212.355-.547.36zm32.373-14.279c-.745-.05-1.364-.228-1.924-.56-.318-.189-.626-.212-.97-.15a2.753 2.753 0 01-.617.044c-.272-.012-.432-.194-.383-.465.064-.346.16-.688.27-1.022.069-.212.233-.287.515-.237.342.06.689.127 1.014.246.511.185 1 .153 1.502-.018.485-.166.976-.312 1.466-.46.125-.039.254-.068.383-.083.288-.034.4.073.396.374a1.39 1.39 0 01-.04.328c-.091.362-.186.724-.289 1.084a1.104 1.104 0 01-.686.75c-.23.09-.48.13-.637.169zm11.186 2.139c-.02.533-.272.943-.662 1.28-.134.116-.278.127-.418.025-.222-.16-.455-.31-.65-.5-.6-.582-1.314-.923-2.118-1.11a7.29 7.29 0 01-1.113-.367c-.34-.14-.425-.355-.35-.719.081-.402.27-.748.573-1.017a1.51 1.51 0 01.473-.277c.257-.096.389-.038.494.224.183.452.513.757.9 1.018.773.521 1.61.874 2.525 1.036.315.056.357.112.346.406zM34.907 37.146c-.853.008-.919-.035-1.006-.693-.058-.442-.134-.872-.384-1.251-.012-.018-.019-.04-.028-.06-.17-.404-.085-.588.34-.646.724-.1 1.448-.186 2.174-.257.428-.041.522.053.568.478.043.395.189.743.427 1.059.361.48.29.755-.27.98-.643.258-1.321.357-1.821.39zm38.539-19.112c-.03-.006-.1-.006-.157-.033-.277-.125-.56-.241-.824-.392-.297-.17-.334-.377-.119-.654.33-.424.679-.833 1.015-1.252.162-.202.364-.341.59-.457.135-.069.253-.097.4-.033.22.093.454.154.674.245.488.201.538.41.2.81-.142.167-.294.325-.438.49-.3.349-.602.696-.896 1.05-.11.132-.229.235-.445.226zm1.044-.051c1.044.815 2.233 1.107 3.415 1.417.053.014.108.017.16.032.254.068.308.133.304.354-.006.261-.115.43-.347.44a2.802 2.802 0 01-.744-.059 97.963 97.963 0 01-2.57-.633 2.52 2.52 0 01-.605-.242c-.29-.164-.367-.462-.172-.733.15-.21.359-.375.559-.576zm-3.083-1.033c-.472.004-.703-.234-.66-.663.07-.692.402-1.248.912-1.697.239-.21.506-.145.766-.03.244.107.417.274.44.561.057.72-.59 1.63-1.283 1.802-.073.018-.15.024-.175.028zm-1.343.01c-.002-.242.089-.312.306-.223.19.078.376.174.554.277.482.277.954.572 1.44.839.236.13.497.214.747.316.08.034.166.053.244.091.212.104.286.246.227.415-.065.187-.274.325-.464.266-.394-.122-.8-.227-1.165-.41-.524-.264-1.015-.595-1.524-.889-.27-.156-.341-.41-.365-.682z" fill="#F4AB01"/></svg>