<svg width="82" height="50" fill="none" xmlns="http://www.w3.org/2000/svg"><path d="M31.127 49.776c-.298-.04-.594-.104-.892-.114-.255-.008-.42-.11-.52-.334-.122-.27-.26-.534-.351-.813-.09-.276-.014-.417.24-.543.6-.295 1.24-.39 1.9-.366.246.008.395.154.473.396.113.352.243.699.371 1.046.098.267.03.447-.236.56-.159.067-.326.112-.49.168h-.495z" fill="#F4AB01"/><path d="M72.186 30.316c-.006.109-.019.217-.017.325.033 1.713.07 3.426.102 5.138.01.512.017 1.024.017 1.536.001.325-.07.391-.388.391-1.056.001-2.112.002-3.168 0-.308 0-.38-.063-.375-.375a78.56 78.56 0 01.058-2.121c.082-1.935.188-3.87.122-5.807-.048-1.442-.103-2.884-.152-4.326-.009-.27-.008-.54-.007-.81.002-.26.04-.303.301-.329.146-.014.294-.016.44-.019a12.108 12.108 0 001.97-.21c.162-.03.328-.034.492-.052a.354.354 0 01.337.148c.074.096.15.19.22.287l4.883 6.724c.076.105.151.213.242.304.088.086.197.152.297.227.135-.11.14-.233.141-.352.006-.372.019-.744.005-1.116-.061-1.628-.131-3.255-.196-4.883-.01-.251-.022-.503-.01-.753.012-.255.078-.311.32-.319 1.065-.034 2.129-.07 3.194-.098.4-.01.429.015.418.422-.035 1.349-.08 2.698-.119 4.047-.026.93-.066 1.861-.07 2.792-.011 2.049-.004 4.097-.004 6.146 0 .47-.001.457-.449.49-.891.068-1.78.019-2.67-.03a.52.52 0 01-.388-.177 5.187 5.187 0 01-.226-.282l-5.032-6.715c-.064-.085-.141-.159-.212-.237l-.076.034zm-61.754.882c0-1.548-.384-2.493-1.121-3.208-1.123-1.09-2.926-1.134-4.092-.097-1.467 1.305-1.593 3.22-.932 4.636.994 2.128 3.663 2.356 5.044.907.717-.752 1.103-1.635 1.101-2.238zM7.184 38.1C3.296 38.124.82 35.163.34 32.33c-.307-1.82-.156-3.591.746-5.23.965-1.753 2.377-2.983 4.338-3.434 2.102-.485 4.1-.217 5.86 1.131 1.556 1.193 2.492 2.784 2.768 4.753.222 1.595.083 3.152-.63 4.604-1.021 2.078-2.645 3.396-4.926 3.81-.432.08-.875.093-1.313.136zm40.998-7.195c.003-1.216-.342-2.15-1.11-2.905-1.117-1.096-2.922-1.148-4.091-.116-1.482 1.308-1.607 3.238-.937 4.657 1 2.12 3.668 2.343 5.048.885.707-.746 1.09-1.622 1.09-2.52zm-3.251 7.178c-3.883.04-6.36-2.92-6.839-5.756-.307-1.82-.155-3.592.747-5.23.966-1.753 2.379-2.978 4.339-3.434 1.968-.457 3.865-.25 5.568.925 1.718 1.186 2.75 2.84 3.053 4.936.233 1.603.092 3.17-.626 4.631-1.022 2.078-2.647 3.39-4.926 3.813-.162.03-.327.053-.491.066-.275.022-.55.033-.825.049zM19.43 30.258c.07.03.102.052.137.059a6.446 6.446 0 001.837.1c.288-.028.58-.104.85-.21.439-.172.718-.516.814-.984a2.7 2.7 0 00.05-.72c-.066-.939-.485-1.451-1.351-1.666-.548-.136-1.108-.159-1.67-.122a2.113 2.113 0 00-.378.07c-.17.044-.265.156-.27.34-.004.168-.017.335-.018.503v2.63zm7.835 7.412c-.234.03-.403.067-.574.07-1.073.024-2.147.057-3.22-.026-.245-.019-.372-.124-.462-.354-.494-1.262-1-2.52-1.507-3.776-.188-.466-.443-.625-.934-.615-.275.006-.55.002-.826.009-.19.004-.229.034-.248.222a3.364 3.364 0 00-.014.557c.066 1.013.141 2.024.21 3.036.016.232.023.465.021.697-.002.186-.025.209-.207.22-.33.022-.66.044-.99.047a94.33 94.33 0 01-1.983-.001 4.817 4.817 0 01-.658-.054c-.206-.03-.286-.13-.285-.342.002-.456.01-.912.024-1.368.06-1.851.159-3.702.174-5.554.014-1.646-.06-3.294-.102-4.94-.01-.391-.05-.781-.08-1.17-.023-.298.037-.386.333-.422.21-.026.42-.044.632-.049 1.762-.039 3.524-.085 5.286-.105.896-.01 1.774.131 2.609.486.503.215.963.5 1.364.878.707.667 1.067 1.505 1.15 2.466a6.887 6.887 0 01-.13 2.054 3.345 3.345 0 01-.918 1.687c-.241.241-.508.455-.765.68-.056.048-.12.087-.174.137-.147.134-.157.178-.07.36.27.57.549 1.136.816 1.708.45.967.897 1.936 1.34 2.907.07.157.112.327.188.555zm39.472-17.308c-1.035.075-2.041.027-3.06.01-.08-.378-.15-.751-.237-1.12-1.414-5.95-4.806-10.367-10.073-13.314a18.945 18.945 0 00-6.437-2.193c-1.989-.304-3.986-.36-5.985-.115-3.587.44-6.787 1.823-9.63 4.075-2.593 2.053-4.587 4.598-6.065 7.566-.305.615-.57 1.25-.852 1.876-.038.083-.075.167-.154.24.062-.29.117-.581.188-.869.69-2.815 1.944-5.355 3.696-7.638 3.046-3.968 6.976-6.569 11.802-7.757 1.947-.48 3.928-.63 5.93-.592 5.503.108 10.23 2.128 14.2 5.961 3.037 2.932 5.088 6.471 6.138 10.597.246.965.408 1.946.519 2.937.011.1.012.203.02.336zM35.343 45.48c.085.024.172.045.256.074 1.696.566 3.43.97 5.209 1.131 7.322.663 13.622-1.586 18.846-6.858.13-.131.252-.185.432-.17.612.054 1.226.099 1.84.14.318.021.637.029 1.003.044-.081.111-.14.199-.206.282-2.675 3.393-6.054 5.764-10.114 7.137a21.088 21.088 0 01-7.588 1.108c-3.34-.123-6.482-.986-9.394-2.667-.102-.058-.201-.12-.302-.181l.018-.04zm-.83-18.651c-1.572-.032-3.138.075-4.703.21-.356.031-.711.083-1.068.102-.32.017-.44-.103-.438-.424.001-.146.027-.297.072-.437.252-.798.575-1.568.925-2.327.123-.268.306-.366.586-.355.844.031 1.689.052 2.533.075 1.067.03 2.129-.051 3.19-.14.741-.064 1.481-.135 2.222-.198.343-.03.436.06.404.411a1.559 1.559 0 01-.117.514c-.332.706-.453 1.468-.596 2.225-.06.318-.09.342-.421.343-.863.003-1.726 0-2.59 0z" fill="#2EC8A6"/><path d="M56.415 29.976c.488.029 1.048.07 1.577.277.187.073.373.162.535.279.324.234.458.572.437.972-.012.21-.091.288-.3.266a2.528 2.528 0 01-.454-.105c-.15-.045-.293-.109-.44-.16-.225-.077-.417-.028-.563.168-.077.104-.145.215-.222.32-.114.156-.222.32-.351.464-.7.787-2.125.627-2.525-.503a3.765 3.765 0 01-.173-.7c-.037-.25.041-.357.28-.443.172-.063.35-.109.526-.16.356-.105.688-.249.957-.525.157-.161.221-.162.716-.15zm-22.901.97c.652.065 1.311.105 1.962.204.542.083.607.256.367.764-.18.379-.207.758-.071 1.161.197.586-.04.904-.655.875a8.444 8.444 0 01-1.037-.12c-.44-.077-.877-.178-1.314-.274a.96.96 0 01-.255-.098c-.22-.122-.263-.218-.165-.451a1.088 1.088 0 00-.014-.891 4.288 4.288 0 01-.102-.26c-.136-.385.01-.694.406-.788.282-.068.578-.083.878-.122zm1.222 6.309c-.161-.043-.38-.081-.585-.16a43.242 43.242 0 01-1.68-.688 1.34 1.34 0 01-.395-.294c-.194-.196-.186-.423.022-.604.206-.181.311-.407.356-.671.03-.175.058-.35.1-.52.058-.236.17-.338.408-.33.292.008.594.01.872.086.52.144 1.027.336 1.538.515.111.04.217.1.32.161.33.199.4.486.133.756-.374.374-.558.807-.598 1.333-.024.323-.18.438-.491.416zm-1.645-6.588c-.237 0-.548.004-.86-.002-.31-.005-.406-.123-.371-.44.004-.036.012-.072.02-.109.087-.42.052-.81-.255-1.144a1.016 1.016 0 01-.165-.288c-.084-.194-.049-.323.14-.417.535-.266 1.09-.41 1.7-.34.459.054.888.207 1.329.326.266.073.3.117.305.385.007.374.08.716.365.986.064.06.103.154.136.24.07.176.038.312-.115.415-.245.164-.5.305-.809.316-.448.014-.896.044-1.42.072zm-.257 9.185c-.043-.01-.15-.033-.254-.068-.578-.195-1.106-.492-1.616-.822a2.794 2.794 0 01-.427-.35c-.3-.293-.293-.44-.021-.754a3.7 3.7 0 00.364-.52c.066-.108.097-.24.142-.36.026-.07.044-.143.075-.21.08-.175.17-.239.348-.19.575.153 1.151.302 1.716.49.435.144.785.434 1.065.806.165.218.16.336-.047.524-.109.099-.228.187-.344.277-.213.163-.362.364-.398.642a.988.988 0 01-.072.24c-.096.244-.198.308-.531.295zM30.033 44.8a6.99 6.99 0 01-2.083-.438 1.057 1.057 0 01-.1-.044c-.378-.187-.444-.33-.306-.732.136-.396.244-.794.282-1.215.032-.355.284-.548.634-.5.763.107 1.514.28 2.244.526.46.156.573.57.253.941-.187.217-.257.44-.193.716.012.054.014.11.015.166.005.378-.176.57-.546.58h-.2zm.677-28.176c.082.168.109.288.016.428-.39.582-.409 1.239-.348 1.907.013.147.056.292.08.438.108.649.495 1.067 1.076 1.308.227.095.474.142.709.22.2.066.407.122.589.223.352.196.549.512.59.921.01.102.012.202-.094.271-.306.202-.609.41-.912.615-.329-.164-.232-.566-.48-.792-.049.18-.086.347-.141.507a.908.908 0 01-.15.292c-.211.248-.432.245-.654.01a2.26 2.26 0 01-.516-.881c-.074-.233-.029-.303.191-.397.056-.023.126-.095.127-.145 0-.05-.067-.125-.122-.15a1.347 1.347 0 00-.341-.098c-.201-.031-.324-.143-.414-.325-.163-.333-.158-.686-.13-1.038a5.357 5.357 0 00-.02-.89c-.083-.95.25-1.744.945-2.424zm.361 25.55c-.036-.01-.129-.02-.21-.057-.67-.304-1.337-.613-2.006-.918a.763.763 0 01-.35-.303c-.13-.215-.123-.375.047-.556.095-.1.2-.193.313-.27.2-.138.33-.318.393-.553a1.89 1.89 0 01.112-.314c.117-.246.295-.339.561-.297.108.018.216.046.32.078a5.823 5.823 0 011.824.957c.101.077.194.173.267.278.154.22.126.415-.076.592-.076.067-.164.12-.251.17a.839.839 0 00-.432.645 1.425 1.425 0 01-.051.245c-.072.222-.178.298-.46.303zm27.272-12.028c-.628-.043-1.15-.192-1.621-.472-.268-.159-.528-.179-.817-.126a2.27 2.27 0 01-.52.037c-.23-.01-.364-.164-.323-.392.054-.291.134-.58.227-.86.059-.18.197-.242.434-.2.289.05.58.107.855.206.43.157.842.13 1.265-.015.408-.14.822-.262 1.235-.388.105-.032.214-.056.322-.069.243-.028.338.062.334.315a1.197 1.197 0 01-.034.276c-.076.306-.156.61-.243.913a.93.93 0 01-.578.633c-.194.076-.405.108-.536.142zm9.422 1.801c-.017.45-.229.795-.557 1.079-.113.098-.234.107-.353.02-.186-.134-.383-.26-.547-.42-.506-.49-1.107-.778-1.784-.935a6.148 6.148 0 01-.938-.31c-.286-.117-.358-.299-.295-.605.069-.34.229-.63.483-.857a1.29 1.29 0 01.399-.234c.216-.08.327-.031.416.19.154.38.432.637.759.857a5.47 5.47 0 002.126.873c.266.047.3.094.291.342zm-38.36 15.649c-.718.007-.774-.03-.847-.584-.05-.373-.113-.734-.323-1.054-.01-.015-.016-.033-.024-.05-.144-.34-.072-.495.287-.545.609-.083 1.22-.156 1.831-.216.36-.035.44.045.478.403.036.333.16.626.36.892.304.404.244.636-.227.825a5.19 5.19 0 01-1.535.33zm32.465-16.1c-.025-.005-.083-.005-.132-.027-.233-.106-.472-.204-.694-.331-.25-.143-.28-.318-.1-.551.278-.357.572-.702.855-1.055.136-.17.307-.287.498-.385.113-.057.212-.08.336-.028.185.08.382.13.568.207.41.17.453.346.167.682-.119.14-.247.274-.368.414-.253.293-.507.586-.755.883-.093.112-.192.198-.374.191zm.88-.043c.88.687 1.881.932 2.877 1.194.044.011.09.014.135.026.213.058.26.113.255.3-.004.22-.097.361-.292.37a2.358 2.358 0 01-.627-.05 81.844 81.844 0 01-2.165-.534 2.12 2.12 0 01-.51-.203c-.244-.138-.308-.39-.144-.618.126-.176.302-.315.47-.485zm-2.597-.869c-.398.002-.592-.199-.556-.56.058-.583.339-1.051.768-1.429.201-.176.427-.123.646-.026.205.091.35.23.37.473.048.606-.496 1.373-1.08 1.518-.062.015-.127.02-.148.024zm-1.132.006c-.002-.203.075-.262.258-.186.16.065.316.146.467.232.406.234.803.482 1.213.707.199.11.418.18.63.267.067.028.14.045.205.077.178.087.24.206.19.35-.054.157-.23.272-.39.223-.332-.102-.673-.191-.981-.346-.442-.222-.855-.5-1.284-.748-.228-.132-.288-.346-.308-.575z" fill="#F4AB01"/></svg>