<svg width="16" height="16" fill="none" xmlns="http://www.w3.org/2000/svg"><path d="M15.5 11.683v2.947a.833.833 0 01-.775.832c-.364.025-.662.038-.892.038C6.47 15.5.5 9.53.5 2.167c0-.23.012-.528.038-.892A.833.833 0 011.37.5h2.947a.417.417 0 01.415.375c.019.192.036.344.053.46a11.58 11.58 0 001.007 3.334.38.38 0 01-.123.473L3.871 6.427a10.872 10.872 0 005.703 5.703l1.284-1.795a.385.385 0 01.477-.124c1.054.5 2.178.84 3.333 1.004.116.017.269.035.459.053a.417.417 0 01.374.415H15.5z" fill="#fff"/></svg>