<svg width="50" height="51" fill="none" xmlns="http://www.w3.org/2000/svg"><g opacity=".2" fill="#000" stroke="#000" stroke-width=".2"><path d="M43.227 25.664v-5.482c0-1.858-1.442-3.37-3.263-3.517l-5.09-8.89a3.503 3.503 0 00-2.146-1.655 3.483 3.483 0 00-2.668.358L12.61 16.637H9.545A3.549 3.549 0 006 20.182v21.273A3.549 3.549 0 009.545 45h30.136a3.549 3.549 0 003.546-3.545v-5.482a2.655 2.655 0 001.772-2.496V28.16a2.655 2.655 0 00-1.772-2.495zM30.953 8.01c.401-.235.87-.297 1.316-.178.453.121.83.414 1.065.823l1.727 3.017a6.086 6.086 0 01-2.47.533 6.107 6.107 0 01-4.82-2.343l3.182-1.852zm-4.721 2.748c1.503 2.027 3.818 3.22 6.359 3.22a7.87 7.87 0 003.35-.77l1.963 3.429h-21.77l10.098-5.88zm15.222 30.697c0 .977-.796 1.772-1.773 1.772H9.545a1.775 1.775 0 01-1.772-1.772V20.182c0-.977.795-1.772 1.772-1.772h30.136c.977 0 1.773.795 1.773 1.772V25.5h-5.318a5.324 5.324 0 00-5.318 5.318 5.324 5.324 0 005.318 5.318h5.318v5.319zm1.773-7.978a.887.887 0 01-.887.887h-6.204a3.549 3.549 0 01-3.546-3.546 3.549 3.549 0 013.546-3.545h6.204c.49 0 .887.397.887.886v5.318z"/><path d="M36.135 29.046c-.977 0-1.772.795-1.772 1.772 0 .978.795 1.773 1.772 1.773s1.773-.795 1.773-1.773c0-.977-.795-1.772-1.773-1.772z"/></g></svg>