<svg width="50" height="50" viewBox="0 0 50 50" fill="none" xmlns="http://www.w3.org/2000/svg">
<g opacity="0.2">
<g clip-path="url(#clip0)">
<path d="M48.0204 11.0323L25.3184 0.0727417C25.1172 -0.0243286 24.8828 -0.0243286 24.6816 0.0727417L1.97958 11.0323C1.72645 11.1545 1.56561 11.4108 1.56561 11.6919V38.308C1.56561 38.589 1.72645 38.8454 1.97958 38.9676L24.6815 49.9271C24.7821 49.9757 24.8911 50 25 50C25.1089 50 25.2178 49.9757 25.3184 49.9271L48.0204 38.9676C48.2735 38.8454 48.4344 38.589 48.4344 38.308V11.692C48.4344 11.4107 48.2734 11.1546 48.0204 11.0323ZM25 1.54569L46.0173 11.6919L39.9248 14.6331C39.8862 14.6037 39.8455 14.5765 39.8008 14.555L18.9263 4.47782L25 1.54569ZM17.2722 5.30594L38.2589 15.4374L33.9605 17.5125L12.9825 7.38514L17.2722 5.30594ZM38.7499 16.8268V24.4973L34.7349 26.4356V18.7651L38.7499 16.8268ZM46.9695 37.8484L25.7324 48.1006V23.1111L30.7981 20.6656C31.1624 20.4897 31.3151 20.0519 31.1392 19.6876C30.9634 19.3234 30.5256 19.1705 30.1612 19.3465L25 21.8382L22.9691 20.8577C22.6048 20.6816 22.167 20.8346 21.9911 21.1988C21.8152 21.5631 21.968 22.001 22.3322 22.1768L24.2676 23.1111V48.1006L3.03046 37.8482V12.8588L19.2023 20.6659C19.305 20.7155 19.4135 20.739 19.5202 20.739C19.7925 20.739 20.054 20.5864 20.1803 20.3248C20.3561 19.9605 20.2034 19.5226 19.8391 19.3468L3.9827 11.6919L11.2586 8.17938L33.2599 18.8008C33.2632 18.8053 33.2668 18.8093 33.2701 18.8137V27.6026C33.2701 27.8547 33.3997 28.0889 33.6132 28.223C33.7317 28.2974 33.867 28.335 34.0026 28.335C34.1112 28.335 34.2201 28.3109 34.321 28.2622L39.8008 25.6168C40.0539 25.4946 40.2147 25.2384 40.2147 24.9572V16.1198L46.9695 12.8589V37.8484Z" fill="black" stroke="black" stroke-width="0.2"/>
<path d="M9.07479 35.0077L5.74325 33.3994C5.3788 33.2233 4.9411 33.3763 4.76522 33.7405C4.58934 34.1048 4.74208 34.5427 5.10633 34.7185L8.43788 36.3268C8.54052 36.3764 8.64901 36.3999 8.75575 36.3999C9.02802 36.3999 9.28954 36.2473 9.41581 35.9857C9.59179 35.6214 9.43905 35.1837 9.07479 35.0077Z" fill="black"/>
<path d="M12.1409 33.0119L5.74783 29.9256C5.38347 29.7497 4.94568 29.9024 4.7698 30.2668C4.59402 30.631 4.74675 31.0689 5.11101 31.2448L11.5041 34.3311C11.6067 34.3806 11.7152 34.4042 11.8219 34.4042C12.0942 34.4042 12.3557 34.2516 12.482 33.99C12.6579 33.6256 12.5052 33.1877 12.1409 33.0119Z" fill="black"/>
</g>
</g>
<defs>
<clipPath id="clip0">
<rect width="50" height="50" fill="white"/>
</clipPath>
</defs>
</svg>
