<svg width="50" height="50" viewBox="0 0 50 50" fill="none" xmlns="http://www.w3.org/2000/svg">
<path d="M7.72641 11.0683L19.488 6.36877C19.8572 6.21469 20.0946 5.88084 20.0946 5.46995V0.95018C20.0946 0.410889 19.6462 0 19.1188 0C18.5914 0 18.1431 0.436569 18.1431 0.95018V4.82794L6.96164 9.29635C4.32451 10.3493 -1.21347 12.5578 0.210585 20.2876C0.421555 21.3662 2.53126 39.5994 3.63886 49.1012C3.6916 49.5891 4.11354 49.9486 4.61459 49.9486C4.64096 49.9486 4.69371 49.9486 4.72008 49.9486C5.27388 49.8973 5.64307 49.4093 5.59033 48.8957C5.48485 47.7401 2.42577 21.3405 2.16206 19.9281C1.13358 14.227 4.32451 12.4294 7.72641 11.0683Z" fill="#181818" opacity="0.2"/>
<path d="M43.0379 9.29635L31.8829 4.85362V0.95018C31.8829 0.410889 31.4346 0 30.9071 0C30.3533 0 29.9314 0.436569 29.9314 0.95018V5.46995C29.9314 5.85516 30.1687 6.21469 30.5379 6.36877L42.2995 11.0683C45.6751 12.4294 48.8924 14.227 47.8375 19.9281C47.5738 21.3405 44.5147 47.7401 44.3829 48.8701C44.3301 49.4094 44.6993 49.8716 45.2531 49.923C45.2795 49.923 45.3322 49.923 45.3586 49.923C45.8597 49.923 46.2816 49.5634 46.3344 49.0755C47.4419 39.5737 49.578 21.3405 49.7626 20.2619C51.1867 12.5578 45.6751 10.3493 43.0379 9.29635Z" fill="#181818" opacity="0.2"/>
<path d="M40.5327 20.0308C40.0053 19.9281 39.4779 20.2619 39.3724 20.8012C39.346 20.981 39.0823 22.2136 38.7395 24.037H11.2606C10.9177 22.2393 10.654 20.981 10.6277 20.8012C10.5222 20.2876 9.99475 19.9281 9.46732 20.0308C8.9399 20.1335 8.5707 20.6471 8.67618 21.1607C8.70255 21.3148 11.9726 37.5963 12.0517 41.5768C10.9177 44.9666 10.7859 48.8444 10.7859 48.9984C10.7859 49.2552 10.865 49.512 11.076 49.6918C11.2606 49.8716 11.5243 49.9743 11.788 49.9743H38.2384C38.5021 49.9743 38.7658 49.8716 38.9504 49.6918C39.135 49.512 39.2405 49.2552 39.2405 48.9984C39.2405 48.8444 39.1087 44.9666 37.9747 41.5768C38.0538 37.5963 41.3239 21.3148 41.3502 21.1607C41.4293 20.6214 41.0601 20.1078 40.5327 20.0308ZM38.3703 25.9373C38.1329 27.1443 37.8956 28.454 37.6582 29.8408C34.6783 28.8906 33.0433 29.8151 31.3291 30.7653C29.8523 31.6127 28.1646 32.5629 25 32.6913C21.8355 32.5629 20.1741 31.6127 18.6709 30.7653C16.9568 29.7894 15.3218 28.8649 12.3418 29.8408C12.1045 28.4797 11.8407 27.1443 11.6298 25.9373H38.3703ZM35.9705 41.7308C35.9705 41.8336 35.9969 41.9363 36.0232 42.039C36.076 42.2188 36.1287 42.3729 36.1815 42.5526C34.1772 43.246 33.2806 42.7324 31.7774 41.8849C30.3007 41.0375 28.4547 40.0102 25.0528 39.8562C25.0264 39.8562 24.9736 39.8562 24.9473 39.8562C21.5718 39.9846 19.7258 41.0375 18.249 41.8849C16.7458 42.7324 15.8492 43.246 13.845 42.5526C13.8977 42.3729 13.9504 42.2188 14.0032 42.039C14.0296 41.9363 14.0559 41.8336 14.0559 41.7308C14.0559 40.0102 13.423 35.9014 12.711 31.7668C15.0317 30.945 16.0601 31.51 17.7215 32.4345C19.3302 33.3333 21.3344 34.4633 25 34.6173C25.0264 34.6173 25.0264 34.6173 25.0528 34.6173C25.0791 34.6173 25.1055 34.6173 25.1055 34.6173C28.7711 34.4633 30.749 33.3333 32.3576 32.4345C33.9926 31.51 35.0475 30.9193 37.3682 31.7668C36.6034 35.9014 35.9705 40.0102 35.9705 41.7308ZM12.8428 48.0739C12.922 47.2008 13.0538 45.8397 13.3703 44.4016C16.1393 45.2748 17.6424 44.4273 19.2247 43.5285C20.596 42.7581 22.1256 41.8849 25 41.7565C27.8745 41.8849 29.4304 42.7581 30.7753 43.5285C31.9093 44.1705 32.9905 44.7868 34.4937 44.7868C35.1266 44.7868 35.8386 44.6841 36.6561 44.4273C36.9462 45.8654 37.1045 47.2265 37.1836 48.0996H12.8428V48.0739Z" fill="#181818" opacity="0.2"/>
<path d="M25 19.0293C25.5538 19.0293 25.9758 18.5927 25.9758 18.0791V11.1454C25.9758 10.6061 25.5275 10.1952 25 10.1952C24.4462 10.1952 24.0243 10.6318 24.0243 11.1454V18.0791C24.0243 18.5927 24.4462 19.0293 25 19.0293Z" fill="#181818" opacity="0.2"/>
</svg>
