<svg width="146" height="246" viewBox="0 0 146 246" fill="none" xmlns="http://www.w3.org/2000/svg">
<path d="M110.15 0C110.44 0.662844 110.781 1.2917 111.156 1.88655C111.531 2.48141 111.957 3.04228 112.417 3.56916C113.338 4.60591 114.428 5.45571 115.622 6.10156C116.218 6.42448 116.832 6.71342 117.463 6.96835C117.787 7.08733 118.094 7.2063 118.417 7.30827C118.741 7.41025 119.065 7.51223 119.389 7.59721C120.702 7.95412 122.065 8.20906 123.429 8.37902C124.81 8.54898 126.191 8.66795 127.606 8.75293C128.305 8.78693 129.02 8.82092 129.719 8.85491L131.867 8.93989C133.299 8.99088 134.748 9.04187 136.231 9.14384C137.714 9.24582 139.197 9.38178 140.749 9.65372L141.038 9.70471L141.328 9.7557L141.618 9.82368L141.908 9.89166C142.283 9.97664 142.675 10.0786 143.05 10.1806C143.817 10.3845 144.567 10.6225 145.317 10.8944C146.817 11.4383 148.266 12.1351 149.664 12.9849C151.045 13.8347 152.357 14.8545 153.517 15.9932C154.096 16.5711 154.659 17.1659 155.187 17.7948C155.699 18.4236 156.193 19.0865 156.636 19.7663C157.54 21.126 158.29 22.5537 158.903 24.0323C159.21 24.7632 159.5 25.511 159.739 26.2588C159.994 27.0066 160.199 27.7714 160.386 28.5193C160.761 30.0319 161.034 31.5615 161.239 33.0912C161.426 34.6208 161.529 36.1505 161.563 37.6631C161.58 38.4279 161.58 39.1758 161.563 39.9406L161.546 40.4844L161.529 41.0453C161.512 41.4192 161.512 41.7761 161.494 42.15C161.46 42.8809 161.426 43.6287 161.375 44.3595C161.324 45.0904 161.273 45.8212 161.205 46.569C160.949 49.5093 160.574 52.4156 160.114 55.2879C159.653 58.1773 159.091 61.0326 158.494 63.8539C157.881 66.6923 157.216 69.4966 156.517 72.2839C155.818 75.0713 155.102 77.8586 154.386 80.629C153.67 83.3993 152.937 86.1697 152.255 88.94C151.556 91.7103 150.891 94.4807 150.278 97.285C149.971 98.6787 149.664 100.089 149.391 101.483C149.255 102.18 149.119 102.894 148.982 103.591L148.59 105.715C148.556 105.001 148.522 104.27 148.505 103.557C148.488 102.843 148.488 102.112 148.488 101.381C148.488 99.9364 148.539 98.4917 148.607 97.0471C148.744 94.1578 148.999 91.2684 149.323 88.3961C149.647 85.5238 150.039 82.6685 150.482 79.8132C150.908 76.9578 151.386 74.1365 151.846 71.3152C152.784 65.6725 153.721 60.0638 154.403 54.4721C154.744 51.6848 155.034 48.8805 155.221 46.1101C155.272 45.4133 155.306 44.7164 155.341 44.0196C155.375 43.3228 155.409 42.6259 155.426 41.9291C155.443 41.5892 155.443 41.2323 155.46 40.8923L155.477 39.8386C155.494 39.1588 155.477 38.4789 155.477 37.8161C155.409 35.1307 155.136 32.4623 154.556 29.9299C153.977 27.3975 153.073 24.9841 151.778 22.8596C151.13 21.7889 150.38 20.8031 149.545 19.9023C148.709 19.0015 147.772 18.1857 146.749 17.4719C145.726 16.758 144.618 16.1292 143.442 15.6193C142.862 15.3644 142.249 15.1264 141.635 14.9055C141.021 14.6845 140.391 14.4976 139.777 14.3276C138.498 14.0047 137.152 13.7498 135.771 13.5288C134.39 13.3079 132.975 13.1039 131.543 12.9L130.469 12.747L129.396 12.577C128.68 12.4581 127.947 12.3561 127.231 12.2201C125.782 11.9652 124.333 11.6592 122.884 11.2853C121.435 10.8944 120.003 10.4355 118.622 9.80668C118.281 9.65372 117.94 9.48376 117.599 9.3138C117.258 9.14384 116.934 8.95689 116.593 8.76993C115.929 8.37902 115.298 7.95412 114.701 7.47823C114.411 7.24029 114.122 6.98535 113.832 6.73041C113.559 6.47547 113.286 6.18654 113.048 5.9146C112.553 5.35374 112.093 4.74188 111.718 4.09603C110.917 2.82133 110.405 1.41067 110.15 0Z" fill="#F2F2F2"/>
<path d="M147.857 38.4959L146.289 39.7876C145.76 40.2125 145.249 40.6544 144.738 41.0793C143.715 41.9461 142.692 42.8299 141.703 43.7307C139.726 45.5323 137.834 47.4018 136.061 49.3564C134.305 51.3109 132.669 53.3504 131.22 55.4919C129.771 57.6334 128.509 59.8599 127.469 62.1883C126.429 64.4998 125.611 66.8962 125.032 69.3437C124.435 71.7911 124.077 74.2895 123.907 76.8219C123.736 79.3543 123.77 81.9037 123.941 84.4701C124.111 87.0365 124.418 89.6029 124.827 92.1863C125.236 94.7697 125.731 97.3361 126.293 99.9194C126.839 102.503 127.452 105.086 128.066 107.687C129.31 112.887 130.606 118.122 131.714 123.442C132.259 126.093 132.771 128.779 133.18 131.481C133.589 134.183 133.93 136.886 134.135 139.622C134.339 142.341 134.424 145.078 134.356 147.814C134.322 149.174 134.237 150.534 134.1 151.893C134.032 152.573 133.964 153.253 133.862 153.916C133.777 154.596 133.674 155.258 133.555 155.921C133.504 155.241 133.436 154.579 133.384 153.899C133.316 153.219 133.248 152.556 133.18 151.893C133.026 150.55 132.856 149.225 132.651 147.916C132.242 145.265 131.748 142.664 131.168 140.064C130.589 137.464 129.941 134.88 129.242 132.314C128.543 129.747 127.81 127.181 127.043 124.632C125.526 119.516 123.924 114.383 122.458 109.165C121.725 106.548 121.026 103.93 120.412 101.262C119.781 98.5938 119.236 95.8914 118.81 93.155C118.383 90.4187 118.059 87.6313 117.94 84.827C117.804 82.0227 117.855 79.1843 118.162 76.346C118.469 73.5077 119.014 70.6863 119.849 67.95C120.685 65.2136 121.81 62.5623 123.208 60.0639C124.588 57.5654 126.225 55.237 128.049 53.0955C129.873 50.954 131.884 48.9995 133.998 47.2319C136.129 45.4473 138.362 43.8497 140.68 42.405C141.84 41.6742 143.016 40.9944 144.226 40.3485C144.823 40.0256 145.437 39.7027 146.033 39.4137C146.63 39.0738 147.243 38.7679 147.857 38.4959Z" fill="#F2F2F2"/>
<path d="M77.4711 0.832764C77.2154 2.24343 76.704 3.6541 75.9369 4.94579C75.5619 5.59164 75.1017 6.2035 74.6073 6.76436C74.3516 7.05329 74.0959 7.32523 73.8232 7.58017C73.5504 7.83511 73.2606 8.09005 72.9538 8.32799C72.3571 8.80388 71.7264 9.24578 71.0616 9.61969C70.7377 9.84064 70.3968 10.0276 70.0558 10.1976C69.7149 10.3675 69.374 10.5375 69.033 10.6904C67.6522 11.3023 66.2033 11.7782 64.7713 12.1691C63.3224 12.56 61.8734 12.8489 60.4244 13.1039C59.7085 13.2398 58.9755 13.3418 58.2595 13.4608L57.1856 13.6307L56.1116 13.7837C54.6797 13.9877 53.2648 14.1746 51.884 14.4126C50.5033 14.6335 49.1566 14.8884 47.8781 15.2114C47.2644 15.3643 46.6337 15.5683 46.02 15.7892C45.4063 16.0102 44.8097 16.2481 44.213 16.5031C43.0368 17.0299 41.9288 17.6418 40.906 18.3556C39.8832 19.0695 38.9456 19.8853 38.1103 20.7861C37.275 21.6868 36.525 22.6726 35.8772 23.7434C34.5816 25.8679 33.6782 28.2813 33.0986 30.8137C32.519 33.3461 32.2292 36.0145 32.178 38.6998C32.161 39.3797 32.161 40.0425 32.178 40.7223L32.1951 41.7761C32.1951 42.116 32.2121 42.4729 32.2292 42.8128C32.2462 43.5097 32.2803 44.2065 32.3144 44.9034C32.3485 45.6002 32.3826 46.297 32.4337 46.9939C32.6213 49.7812 32.9111 52.5685 33.252 55.3559C33.9339 60.9476 34.8885 66.5562 35.809 72.1989C36.2693 75.0202 36.7466 77.8586 37.1727 80.6969C37.5989 83.5352 38.008 86.4075 38.3319 89.2799C38.6558 92.1522 38.9115 95.0415 39.0479 97.9308C39.1161 99.3755 39.1501 100.82 39.1672 102.265C39.1672 102.996 39.1672 103.709 39.1501 104.44C39.1331 105.154 39.099 105.885 39.0649 106.599L38.6728 104.474C38.5365 103.76 38.4001 103.064 38.2637 102.367C37.9739 100.956 37.6841 99.5624 37.3773 98.1688C36.7636 95.3814 36.0988 92.5941 35.3999 89.8237C34.701 87.0534 33.985 84.2831 33.269 81.5127C32.5531 78.7424 31.8201 75.972 31.1382 73.1677C30.4393 70.3803 29.7745 67.576 29.1608 64.7377C28.5471 61.8993 28.0016 59.044 27.5413 56.1717C27.0811 53.2824 26.7061 50.3761 26.4504 47.4528C26.3822 46.7219 26.331 45.9911 26.2799 45.2433C26.2287 44.5125 26.1947 43.7646 26.1606 43.0338C26.1435 42.6599 26.1265 42.303 26.1265 41.9291L26.1094 41.3682L26.0924 40.8243C26.0753 40.0765 26.0753 39.3117 26.0924 38.5469C26.1265 37.0342 26.2287 35.5046 26.4163 33.9749C26.6038 32.4453 26.8765 30.9157 27.2686 29.403C27.4561 28.6382 27.6777 27.8904 27.9164 27.1425C28.1721 26.3947 28.4448 25.6469 28.7517 24.9161C29.3653 23.4374 30.1324 22.0098 31.0189 20.6501C31.4621 19.9702 31.9564 19.3074 32.4678 18.6785C32.9963 18.0497 33.5418 17.4378 34.1384 16.877C35.3146 15.7382 36.6102 14.7185 37.991 13.8687C39.3718 13.0189 40.8378 12.3221 42.3379 11.7782C43.0879 11.5062 43.838 11.2683 44.6051 11.0643C44.9801 10.9624 45.3722 10.8774 45.7472 10.7754L46.037 10.7074L46.3268 10.6394L46.6166 10.5885L46.9064 10.5375C48.4406 10.2655 49.9407 10.1296 51.4238 10.0276C52.9068 9.92562 54.3558 9.87463 55.7877 9.82364L57.9356 9.73866C58.6516 9.70467 59.3505 9.67068 60.0494 9.63668C61.4643 9.5517 62.8451 9.44973 64.2258 9.26277C65.6066 9.09281 66.9533 8.83787 68.2659 8.48096C68.5898 8.39598 68.9137 8.294 69.2376 8.19203C69.5615 8.09005 69.8854 7.97108 70.1922 7.85211C70.8229 7.59717 71.4366 7.32523 72.0332 6.98531C73.2095 6.32247 74.3005 5.48966 75.238 4.45291C75.6983 3.94303 76.1245 3.38216 76.4995 2.77031C76.8234 2.12446 77.1643 1.49561 77.4711 0.832764Z" fill="#F2F2F2"/>
<path d="M39.7638 39.3287C40.3775 39.6176 40.9912 39.9066 41.6048 40.2125C42.2185 40.5184 42.8152 40.8244 43.4118 41.1473C44.6051 41.7931 45.7983 42.473 46.9575 43.2038C49.2759 44.6484 51.526 46.2461 53.6398 48.0307C55.7707 49.8152 57.7651 51.7528 59.5891 53.8943C61.4131 56.0358 63.0496 58.3642 64.4304 60.8626C65.8112 63.361 66.9363 66.0124 67.7886 68.7488C68.6239 71.4851 69.1864 74.3064 69.4762 77.1448C69.7831 79.9831 69.8342 82.8214 69.6978 85.6258C69.5615 88.4301 69.2546 91.2174 68.8284 93.9538C68.4023 96.6902 67.8397 99.3925 67.2261 102.061C66.5953 104.729 65.9135 107.364 65.1804 109.964C63.7144 115.182 62.112 120.315 60.5949 125.43C59.8278 127.997 59.0948 130.546 58.3959 133.113C57.6969 135.679 57.0492 138.262 56.4696 140.863C55.89 143.463 55.3956 146.08 54.9865 148.715C54.782 150.041 54.6115 151.366 54.4581 152.692C54.3899 153.355 54.3217 154.035 54.2535 154.697C54.1853 155.377 54.1342 156.04 54.083 156.72C53.9637 156.057 53.8614 155.377 53.7762 154.714C53.691 154.035 53.6057 153.372 53.5375 152.692C53.4012 151.332 53.333 149.973 53.2818 148.613C53.1966 145.894 53.2818 143.14 53.5034 140.421C53.708 137.701 54.0489 134.982 54.4581 132.28C54.8672 129.577 55.3786 126.909 55.9241 124.241C57.0321 118.921 58.3277 113.686 59.5721 108.485C60.1858 105.885 60.7994 103.302 61.3449 100.718C61.8904 98.1348 62.4018 95.5514 62.811 92.985C63.2201 90.4016 63.5269 87.8353 63.6974 85.2689C63.8679 82.7025 63.8849 80.1531 63.7315 77.6207C63.561 75.0883 63.203 72.5899 62.6064 70.1424C62.0268 67.695 61.2086 65.2986 60.1687 62.9871C59.1289 60.6757 57.8674 58.4322 56.4184 56.2907C54.9695 54.1492 53.35 52.1097 51.5772 50.1551C49.8214 48.2006 47.9292 46.3311 45.9347 44.5295C44.946 43.6287 43.9232 42.7449 42.9004 41.8781C42.389 41.4362 41.8605 41.0113 41.3491 40.5864L39.7638 39.3287Z" fill="#F2F2F2"/>
<path d="M98.4899 3.65417C97.8251 5.11583 97.2114 6.57748 96.6659 8.07313C96.1204 9.56878 95.6431 11.0644 95.2169 12.5941C94.3816 15.6363 93.7679 18.7126 93.3588 21.8229C92.9497 24.9332 92.7281 28.0434 92.6429 31.1707C92.5747 34.2979 92.6429 37.4252 92.8133 40.5525C93.1713 46.807 93.9555 53.0445 94.9442 59.2651C95.4385 62.3753 95.984 65.4856 96.5466 68.6128C97.1091 71.7231 97.7057 74.8504 98.2683 78.0116C98.4046 78.7934 98.541 79.5923 98.6774 80.3741L98.8819 81.5638L98.9842 82.1756L99.0865 82.7875C99.3422 84.4021 99.5468 86.0337 99.7172 87.6653C100.058 90.9116 100.246 94.1748 100.314 97.438C100.433 103.948 100.058 110.44 99.2399 116.864C98.4217 123.289 97.1943 129.645 95.5067 135.866C94.6544 138.976 93.6998 142.053 92.6258 145.095C92.0803 146.607 91.5007 148.12 90.8871 149.599C90.2734 151.077 89.6256 152.556 88.9267 154.001C89.2676 152.437 89.6086 150.873 89.9154 149.31C90.2393 147.746 90.5291 146.183 90.8189 144.619C91.3814 141.492 91.8928 138.364 92.319 135.237C92.7622 132.11 93.1372 128.966 93.427 125.838C93.7338 122.694 93.9725 119.567 94.16 116.423C94.3305 113.278 94.4498 110.151 94.4669 107.024C94.501 103.897 94.4498 100.769 94.3134 97.659C94.1771 94.5487 93.9555 91.4385 93.6145 88.3622C93.4441 86.8156 93.2565 85.2859 93.0179 83.7563L92.9327 83.1784L92.8474 82.6005L92.6599 81.4278L92.2678 79.0824C91.7394 75.9551 91.2109 72.7939 90.7166 69.6326C90.2222 66.4714 89.779 63.2761 89.404 60.0809C89.029 56.8856 88.7221 53.6564 88.5346 50.4271C88.3471 47.1979 88.2448 43.9517 88.296 40.7054C88.3471 37.4592 88.5346 34.213 88.9096 30.9667C89.2847 27.7375 89.8472 24.5252 90.6314 21.364C91.4155 18.2027 92.4383 15.1095 93.7339 12.1352C94.3816 10.6565 95.0976 9.19487 95.8817 7.7842C96.6829 6.30555 97.5523 4.94587 98.4899 3.65417Z" fill="#F2F2F2"/>
<path d="M107.269 173.359C114.77 168.515 148.727 155.122 149.835 163.824C149.869 172.815 118.776 172.577 118.707 186.531C118.827 188.452 120.787 189.386 122.406 189.845C139.982 192.633 152.75 177.948 155.119 173.954C163.285 161.428 170.342 148.239 178.473 135.696C179.973 133.419 182.394 130.359 185.513 131.311C188.292 132.756 187.491 136.546 186.468 138.891C178.32 154.426 174.944 172.271 164.444 186.616C160.233 191.477 155.256 195.624 150.176 199.55C131.066 214.387 94.501 216.529 86.5232 246C75.7667 218.67 82.3808 188.571 107.269 173.359Z" fill="#F2F2F2"/>
<path d="M92.6429 183.828C83.7957 193.958 79.4147 206.909 79.4147 220.523C65.5216 212.535 48.4067 208.201 37.2582 199.533C32.1782 195.607 27.2006 191.46 22.9901 186.599C12.4723 172.271 9.09701 154.425 0.948685 138.891C-0.0741175 136.546 -0.875313 132.756 1.9033 131.311C5.02285 130.342 7.44348 133.401 8.94359 135.696C17.0749 148.239 24.1493 161.428 32.3146 173.954C34.6841 177.948 47.4521 192.649 65.0272 189.862C66.6467 189.386 68.6071 188.468 68.7264 186.548C68.6582 172.594 37.548 172.815 37.5991 163.841C38.7071 155.139 72.6642 168.532 80.1818 173.376C85.006 176.316 89.1654 179.851 92.6429 183.828Z" fill="#F2F2F2"/>
<path d="M24.1323 142.307C23.297 136.869 21.5241 131.226 17.4329 127.3C16.6829 126.416 14.535 125.651 14.3816 127.47C13.5463 132.705 14.6032 138.075 15.5066 143.259C18.1659 149.871 22.1378 155.853 25.6665 162.04C25.7347 155.428 25.121 148.834 24.1323 142.307Z" fill="#F2F2F2"/>
<path d="M26.6382 163.569C27.6269 165.201 28.6327 166.816 29.6384 168.43C31.3431 164.623 31.7522 160.374 31.9738 156.261C32.2466 151.723 31.2919 146.964 28.5815 143.259C27.7803 142.053 26.6212 142.817 26.6041 144.024C25.7177 150.5 26.2802 157.06 26.6382 163.569Z" fill="#F2F2F2"/>
</svg>
