<svg width="97" height="40" viewBox="0 0 97 40" fill="none" xmlns="http://www.w3.org/2000/svg">
<path d="M36.9503 39.7338C36.5974 39.686 36.2454 39.6107 35.8913 39.5988C35.5889 39.5887 35.3943 39.4671 35.2742 39.2018C35.1297 38.8825 34.9657 38.5688 34.8576 38.2367C34.7512 37.9094 34.8412 37.7421 35.1438 37.5929C35.8551 37.2419 36.6155 37.1298 37.3978 37.1579C37.6904 37.1682 37.8672 37.3412 37.9596 37.6279C38.0941 38.0459 38.2483 38.4576 38.4001 38.8697C38.5169 39.1869 38.4367 39.4006 38.1201 39.5343C37.9317 39.6138 37.7332 39.6681 37.5391 39.7338H36.9503Z" fill="#F4AB01"/>
<path d="M85.6914 16.6334C85.6843 16.7622 85.6691 16.8911 85.6716 17.0196C85.7109 19.0526 85.7537 21.0855 85.7928 23.1186C85.8046 23.7262 85.8124 24.3342 85.8134 24.942C85.814 25.3272 85.7305 25.4059 85.352 25.4063C84.0983 25.4074 82.8446 25.4077 81.5909 25.406C81.226 25.4055 81.1406 25.3318 81.1465 24.9608C81.1598 24.1211 81.1787 23.2813 81.2147 22.4424C81.3131 20.1458 81.4385 17.8499 81.3605 15.5495C81.3027 13.8377 81.2382 12.1261 81.18 10.4142C81.1691 10.0939 81.1697 9.7732 81.1717 9.45264C81.1734 9.14322 81.2183 9.09311 81.529 9.0621C81.7021 9.04482 81.8771 9.04286 82.0513 9.03992C82.8379 9.02644 83.6156 8.93172 84.3892 8.79056C84.5814 8.75551 84.7789 8.7495 84.974 8.72892C85.1401 8.71139 85.2721 8.77193 85.3738 8.90452C85.4609 9.01787 85.5505 9.12913 85.6344 9.24468C87.567 11.9054 89.4987 14.5667 91.4313 17.2271C91.5217 17.3515 91.6105 17.4802 91.7191 17.5872C91.8233 17.6902 91.9522 17.7679 92.0708 17.8571C92.2315 17.7267 92.2369 17.5802 92.2391 17.4399C92.2458 16.9982 92.2609 16.5557 92.2445 16.1148C92.1719 14.1823 92.0885 12.2502 92.0113 10.3179C91.9994 10.02 91.9852 9.72087 91.9993 9.42359C92.0137 9.12153 92.093 9.05487 92.38 9.04556C93.6436 9.00451 94.9071 8.96199 96.1709 8.92853C96.6472 8.91603 96.6802 8.94741 96.6675 9.4296C96.6257 11.0313 96.5726 12.6329 96.5267 14.2345C96.495 15.3391 96.4485 16.4436 96.4427 17.5484C96.4299 19.9802 96.4388 22.4121 96.4387 24.8441C96.4386 25.4025 96.437 25.3864 95.9054 25.4266C94.8474 25.5066 93.7926 25.4487 92.7369 25.3905C92.5504 25.3802 92.3967 25.32 92.2754 25.1798C92.1823 25.072 92.0928 24.9605 92.0073 24.8461C90.0158 22.1887 88.0253 19.5306 86.0331 16.8737C85.9579 16.7734 85.8658 16.6859 85.7817 16.5923C85.7516 16.606 85.7215 16.6198 85.6914 16.6334Z" fill="#2EC8A6"/>
<path d="M12.3838 17.6804C12.3838 15.843 11.9278 14.7209 11.0526 13.8719C9.71976 12.579 7.57975 12.526 6.19493 13.7572C4.45349 15.3055 4.30376 17.5792 5.08868 19.2599C6.26877 21.7868 9.43697 22.0568 11.0771 20.3365C11.928 19.4443 12.3861 18.3955 12.3838 17.6804ZM8.5277 25.8726C3.91281 25.902 0.972896 22.3868 0.405144 19.0233C0.0404199 16.8621 0.220003 14.7594 1.29037 12.8147C2.43627 10.7327 4.11197 9.2736 6.43953 8.73724C8.93484 8.16241 11.3075 8.47979 13.3962 10.0809C15.2434 11.4967 16.355 13.3847 16.6815 15.7232C16.9456 17.6157 16.7808 19.4641 15.9335 21.1886C14.7218 23.6549 12.7942 25.2191 10.0868 25.712C9.57413 25.8053 9.04783 25.8212 8.5277 25.8726Z" fill="#2EC8A6"/>
<path d="M57.1963 17.3328C57.1999 15.8888 56.7908 14.7806 55.8784 13.8842C54.5534 12.5824 52.4109 12.5209 51.0222 13.7462C49.2631 15.2981 49.1146 17.5892 49.91 19.2745C51.0977 21.7916 54.2642 22.056 55.9032 20.3249C56.7421 19.4388 57.1971 18.3998 57.1963 17.3328ZM53.3374 25.853C48.7281 25.9008 45.7869 22.3878 45.2192 19.0206C44.8548 16.8594 45.0352 14.7568 46.106 12.8123C47.2525 10.7306 48.9297 9.27607 51.2564 8.73567C53.5924 8.19307 55.8448 8.43864 57.8662 9.83387C59.9051 11.2412 61.1302 13.2053 61.491 15.693C61.7668 17.5952 61.5998 19.4555 60.747 21.1908C59.5347 23.6568 57.6052 25.214 54.8997 25.7171C54.7069 25.7529 54.5117 25.78 54.3164 25.7956C53.9906 25.8213 53.6638 25.8345 53.3374 25.853Z" fill="#2EC8A6"/>
<path d="M23.066 16.5645C23.1488 16.6006 23.1868 16.6264 23.2283 16.6341C23.9498 16.7697 24.679 16.8269 25.4082 16.754C25.7501 16.7198 26.0963 16.6298 26.4173 16.5041C26.9385 16.2999 27.2705 15.8914 27.384 15.3354C27.4406 15.0576 27.463 14.7631 27.4431 14.4805C27.3646 13.3668 26.8678 12.758 25.8389 12.5027C25.1885 12.3413 24.5239 12.3146 23.8577 12.3586C23.7067 12.3686 23.5562 12.4045 23.4088 12.442C23.2067 12.4936 23.0936 12.6263 23.0881 12.8454C23.0833 13.0442 23.0674 13.2431 23.067 13.4418C23.0648 14.4789 23.066 15.516 23.066 16.5645ZM32.3661 25.3631C32.0884 25.3985 31.8872 25.4424 31.685 25.4468C30.4104 25.4753 29.1358 25.5134 27.8616 25.4152C27.5713 25.3928 27.4206 25.268 27.3137 24.9951C26.7271 23.497 26.1263 22.0046 25.5247 20.5126C25.3015 19.9589 24.9991 19.7702 24.4164 19.7832C24.0896 19.7903 23.7625 19.7847 23.4357 19.7929C23.2099 19.7985 23.1639 19.8333 23.1414 20.0574C23.1193 20.2762 23.1096 20.4992 23.124 20.7184C23.2027 21.9199 23.2923 23.1207 23.3736 24.322C23.3923 24.5974 23.4014 24.8741 23.3988 25.1499C23.3969 25.3701 23.3696 25.3973 23.153 25.4115C22.7616 25.437 22.3697 25.4626 21.9777 25.4667C21.1931 25.4749 20.4081 25.4734 19.6235 25.4652C19.3628 25.4624 19.1004 25.4401 18.8424 25.4015C18.5987 25.3652 18.5031 25.2468 18.5042 24.9949C18.5065 24.4535 18.5158 23.912 18.5332 23.3709C18.6039 21.1733 18.721 18.9762 18.7395 16.7782C18.7558 14.8234 18.6686 12.8677 18.6179 10.9127C18.6059 10.4493 18.5598 9.9867 18.5233 9.52412C18.4955 9.17072 18.5675 9.06644 18.9188 9.02379C19.1674 8.99352 19.418 8.97135 19.6683 8.96583C21.7601 8.91951 23.8518 8.86425 25.9438 8.84072C27.0076 8.82883 28.0501 8.99696 29.0406 9.41861C29.6383 9.673 30.184 10.0119 30.6601 10.4607C31.4993 11.2518 31.9265 12.2471 32.0246 13.3875C32.0948 14.205 32.0471 15.02 31.8705 15.8261C31.7002 16.6041 31.3382 17.2732 30.7818 17.8287C30.4952 18.1147 30.1776 18.3689 29.8726 18.6355C29.8068 18.6932 29.7309 18.7393 29.6664 18.7984C29.4925 18.9579 29.4807 19.0094 29.5834 19.2255C29.9048 19.9019 30.2353 20.5742 30.5518 21.2531C31.087 22.401 31.6167 23.5516 32.1419 24.7042C32.2267 24.8901 32.2755 25.0928 32.3661 25.3631Z" fill="#2EC8A6"/>
<path d="M40.9697 12.4936C39.1037 12.4554 37.2447 12.5831 35.3873 12.7435C34.9643 12.78 34.5428 12.8418 34.1192 12.8643C33.739 12.8847 33.5973 12.7415 33.5999 12.3613C33.601 12.1877 33.6318 12.0078 33.6842 11.8422C33.9846 10.8946 34.3668 9.98048 34.7829 9.0792C34.9295 8.7617 35.146 8.64577 35.4789 8.65815C36.4808 8.69553 37.4832 8.72003 38.4855 8.74748C39.7516 8.78204 41.0125 8.6867 42.2726 8.58009C43.1521 8.50571 44.0308 8.42153 44.9101 8.34641C45.3178 8.31161 45.4275 8.41699 45.3891 8.83412C45.3702 9.04072 45.3375 9.25958 45.2509 9.44375C44.8563 10.2828 44.7132 11.187 44.5433 12.086C44.472 12.4629 44.4356 12.4916 44.0434 12.4927C43.0188 12.4956 41.9942 12.4936 40.9697 12.4936Z" fill="#2EC8A6"/>
<path d="M66.9702 16.2299C67.5494 16.2636 68.2135 16.3138 68.8419 16.5588C69.0634 16.6452 69.2852 16.7509 69.4774 16.8897C69.8616 17.1671 70.0211 17.5686 69.9954 18.043C69.9818 18.2936 69.8872 18.3853 69.64 18.3592C69.4579 18.3398 69.2774 18.2878 69.1009 18.2348C68.9237 18.1816 68.7534 18.1055 68.5782 18.0453C68.3115 17.9538 68.0832 18.0113 67.9104 18.2442C67.8188 18.3677 67.7375 18.4991 67.6467 18.6231C67.5106 18.8094 67.3824 19.0036 67.2298 19.1749C66.3981 20.109 64.7078 19.9197 64.2321 18.5783C64.137 18.3103 64.069 18.0278 64.027 17.7461C63.9829 17.4501 64.0759 17.3227 64.3585 17.2207C64.5632 17.1465 64.7747 17.0916 64.9838 17.0304C65.4069 16.9064 65.8009 16.7357 66.1195 16.4082C66.3066 16.2161 66.3824 16.215 66.9702 16.2299Z" fill="#F4AB01"/>
<path d="M39.7847 17.3806C40.5579 17.4581 41.3411 17.5054 42.1137 17.6234C42.7569 17.7218 42.8341 17.9269 42.5488 18.5299C42.3356 18.9801 42.3035 19.4301 42.4647 19.9084C42.699 20.6039 42.4176 20.9818 41.6869 20.947C41.2753 20.9274 40.8632 20.874 40.4566 20.8036C39.9335 20.7132 39.4152 20.5934 38.8962 20.4795C38.7916 20.4566 38.6872 20.4154 38.5931 20.3634C38.3315 20.2186 38.2816 20.1037 38.3978 19.8274C38.5494 19.467 38.5316 19.1202 38.3813 18.7696C38.3379 18.6685 38.2968 18.5662 38.2602 18.4624C38.0984 18.0043 38.2708 17.6378 38.7415 17.5256C39.0774 17.4454 39.4276 17.4278 39.7847 17.3806Z" fill="#F4AB01"/>
<path d="M41.2348 24.8703C41.0435 24.8192 40.7831 24.7738 40.5408 24.6801C39.871 24.4212 39.205 24.1512 38.5464 23.8644C38.3722 23.7885 38.2139 23.6527 38.0774 23.515C37.8463 23.2819 37.856 23.013 38.1027 22.7975C38.3484 22.5829 38.4726 22.3149 38.5262 22.0007C38.5613 21.7941 38.5951 21.5868 38.6448 21.3837C38.7134 21.1042 38.8456 20.9825 39.1295 20.9911C39.4761 21.0015 39.8344 21.0031 40.1645 21.0944C40.7819 21.2647 41.3837 21.4935 41.9893 21.7059C42.1217 21.7523 42.2472 21.8245 42.3686 21.897C42.7619 22.1324 42.8455 22.4739 42.5269 22.7936C42.0833 23.2387 41.8653 23.7519 41.8181 24.3763C41.7891 24.7605 41.6051 24.8959 41.2348 24.8703Z" fill="#F4AB01"/>
<path d="M39.2821 17.0494C39.001 17.0494 38.6312 17.0545 38.2615 17.0479C37.8934 17.0415 37.7792 16.9015 37.8205 16.5262C37.8254 16.4825 37.8348 16.4392 37.8437 16.3961C37.9477 15.8965 37.9059 15.4338 37.5417 15.0374C37.4552 14.9433 37.3974 14.8163 37.3456 14.6961C37.2459 14.465 37.288 14.3129 37.513 14.2011C38.1474 13.8854 38.8063 13.7138 39.529 13.798C40.0747 13.8615 40.5847 14.0424 41.1072 14.1844C41.4234 14.2703 41.4639 14.3229 41.4697 14.6407C41.4776 15.0858 41.5653 15.4915 41.9034 15.812C41.979 15.8835 42.0257 15.9944 42.0651 16.0955C42.1471 16.3051 42.1094 16.4674 41.928 16.5892C41.6373 16.7843 41.3345 16.9516 40.9678 16.9638C40.4354 16.9815 39.9036 17.0169 39.2821 17.0494Z" fill="#F4AB01"/>
<path d="M38.9767 27.9536C38.9262 27.9404 38.7982 27.9147 38.6754 27.8731C37.9897 27.6414 37.3623 27.289 36.7566 26.8965C36.5747 26.7786 36.4064 26.6334 36.2505 26.481C35.8944 26.1333 35.9029 25.9584 36.2251 25.5859C36.3883 25.3971 36.5287 25.1849 36.6576 24.9698C36.7354 24.8402 36.7722 24.6849 36.8261 24.5405C36.8568 24.4582 36.8785 24.3718 36.9149 24.292C37.0102 24.084 37.1159 24.0092 37.3282 24.0657C38.0104 24.2479 38.6951 24.4257 39.3651 24.6476C39.8821 24.8191 40.2965 25.164 40.629 25.6047C40.825 25.8643 40.8186 26.0045 40.5739 26.2271C40.4446 26.3447 40.3035 26.4496 40.1649 26.5561C39.912 26.7501 39.7355 26.9888 39.693 27.3184C39.6805 27.4152 39.6437 27.5105 39.6076 27.6023C39.4931 27.893 39.372 27.9687 38.9767 27.9536Z" fill="#F4AB01"/>
<path d="M35.6516 33.8266C34.8066 33.7847 33.9814 33.6032 33.1796 33.3069C33.1389 33.2918 33.0989 33.2743 33.06 33.2551C32.6116 33.0329 32.5332 32.8631 32.6974 32.3863C32.8592 31.9161 32.9866 31.4431 33.032 30.9431C33.0702 30.5223 33.3696 30.2929 33.7847 30.3507C34.6906 30.4766 35.5812 30.6814 36.4486 30.9751C36.9946 31.16 37.1282 31.651 36.7484 32.0921C36.5266 32.3495 36.4439 32.6149 36.5192 32.9414C36.5338 33.0051 36.5358 33.0727 36.5368 33.1387C36.5433 33.5869 36.3283 33.8146 35.8888 33.8262C35.8127 33.8283 35.7365 33.8266 35.6516 33.8266Z" fill="#F4AB01"/>
<path d="M36.4563 0.379062C36.5525 0.578678 36.5847 0.721681 36.4742 0.886987C36.0124 1.57848 35.9892 2.35819 36.061 3.15139C36.077 3.32625 36.1282 3.49769 36.1571 3.67169C36.2851 4.44136 36.7436 4.9374 37.4336 5.22438C37.7036 5.33675 37.9962 5.39239 38.275 5.48466C38.5117 5.56296 38.7583 5.6295 38.9742 5.74971C39.3921 5.98229 39.626 6.35812 39.6743 6.84325C39.6865 6.96395 39.6895 7.08245 39.5639 7.16516C39.1997 7.40485 38.8404 7.65213 38.4809 7.89525C38.0907 7.70041 38.205 7.22275 37.9114 6.95439C37.8527 7.1692 37.8086 7.36674 37.7432 7.5568C37.7012 7.67921 37.6471 7.80727 37.565 7.90358C37.3146 8.19755 37.053 8.19424 36.7893 7.91412C36.5061 7.61329 36.3005 7.26429 36.1762 6.86935C36.0892 6.59302 36.1426 6.50933 36.4037 6.39856C36.4697 6.37049 36.5531 6.2857 36.554 6.22602C36.5547 6.16573 36.4744 6.07775 36.4094 6.04858C36.282 5.99148 36.1426 5.95325 36.0045 5.93168C35.7653 5.89443 35.6194 5.76123 35.5133 5.54581C35.3189 5.15062 35.3254 4.73116 35.3579 4.31318C35.3855 3.95843 35.3656 3.61128 35.3347 3.25763C35.236 2.12868 35.6307 1.18635 36.4563 0.379062Z" fill="#F4AB01"/>
<path d="M36.8845 30.7096C36.8417 30.6984 36.7313 30.6857 36.6347 30.6418C35.8396 30.2816 35.0475 29.9143 34.2532 29.5523C34.0784 29.4727 33.9397 29.3582 33.8388 29.1923C33.6841 28.9379 33.6916 28.7473 33.8939 28.5333C34.0063 28.4146 34.1311 28.3034 34.2653 28.2112C34.5024 28.0482 34.6569 27.8351 34.7319 27.5555C34.7661 27.4283 34.8086 27.3011 34.8652 27.1826C35.0044 26.8906 35.2145 26.7806 35.5309 26.8309C35.6594 26.8513 35.7869 26.8846 35.9116 26.9229C36.7022 27.1655 37.4178 27.5581 38.0759 28.0592C38.1959 28.1506 38.3067 28.2648 38.3934 28.389C38.5757 28.6497 38.5419 28.8817 38.3023 29.0922C38.2126 29.1709 38.1081 29.2344 38.0046 29.2945C37.7101 29.4657 37.5384 29.7174 37.4916 30.059C37.4783 30.1569 37.4615 30.2562 37.4314 30.3497C37.3463 30.6136 37.2205 30.7036 36.8845 30.7096Z" fill="#F4AB01"/>
<path d="M69.258 16.431C68.5129 16.3803 67.8944 16.203 67.3338 15.8708C67.0157 15.6823 66.708 15.6587 66.3641 15.7219C66.162 15.759 65.952 15.7745 65.7469 15.7652C65.4745 15.7529 65.3146 15.5706 65.3642 15.3001C65.4276 14.9542 65.5231 14.6121 65.6331 14.278C65.7028 14.066 65.8667 13.9914 66.1487 14.041C66.4911 14.1014 66.838 14.1684 67.1635 14.2867C67.6742 14.4722 68.1632 14.4404 68.6652 14.2687C69.1498 14.1029 69.6413 13.9573 70.1314 13.8081C70.2558 13.7701 70.3848 13.7411 70.5137 13.726C70.8015 13.6923 70.9141 13.7993 70.9104 14.1C70.909 14.2095 70.8968 14.3216 70.8701 14.4276C70.7789 14.7904 70.6841 15.1523 70.5811 15.5117C70.4769 15.8754 70.2368 16.1296 69.8951 16.2627C69.6645 16.3525 69.4145 16.3912 69.258 16.431Z" fill="#F4AB01"/>
<path d="M80.4437 18.5693C80.4233 19.1026 80.1722 19.5129 79.7822 19.85C79.6481 19.9661 79.5044 19.977 79.3636 19.8749C79.1424 19.7148 78.9092 19.565 78.7141 19.3758C78.1133 18.7927 77.3999 18.4521 76.5956 18.2656C76.2166 18.1779 75.8442 18.0459 75.4831 17.8979C75.143 17.7585 75.0581 17.543 75.1323 17.1791C75.2143 16.7765 75.4038 16.4307 75.7057 16.1617C75.8404 16.0415 76.01 15.9474 76.1793 15.8846C76.4357 15.7893 76.5678 15.8468 76.6732 16.1086C76.8557 16.5612 77.1863 16.866 77.5739 17.1273C78.3455 17.6481 79.1825 18.0008 80.0975 18.1628C80.4134 18.2188 80.4546 18.2748 80.4437 18.5693Z" fill="#F4AB01"/>
<path d="M34.9067 37.1463C34.0536 37.1543 33.9881 37.1112 33.9011 36.4531C33.8426 36.0107 33.7669 35.5809 33.5171 35.202C33.5052 35.1838 33.498 35.1623 33.4895 35.1421C33.3184 34.7383 33.4035 34.5545 33.8298 34.4958C34.5525 34.3966 35.2773 34.3099 36.0033 34.2394C36.4307 34.1978 36.525 34.2925 36.571 34.7174C36.6138 35.1123 36.7598 35.46 36.9976 35.7757C37.359 36.2556 37.2873 36.5312 36.7281 36.7557C36.0847 37.0137 35.4066 37.1129 34.9067 37.1463Z" fill="#F4AB01"/>
<path d="M73.4461 18.034C73.416 18.0283 73.3469 18.0277 73.289 18.0014C73.0118 17.8758 72.7286 17.7597 72.465 17.6088C72.1677 17.4391 72.1315 17.2318 72.3464 16.9548C72.676 16.5305 73.0249 16.1219 73.3611 15.703C73.5229 15.5014 73.7252 15.3617 73.9519 15.246C74.0862 15.1774 74.204 15.1495 74.3514 15.2126C74.5713 15.3063 74.8045 15.3672 75.0255 15.4583C75.5133 15.6594 75.5631 15.8682 75.2243 16.2676C75.0826 16.4348 74.9305 16.5927 74.7872 16.7587C74.4864 17.1065 74.1855 17.4542 73.891 17.8072C73.7803 17.9399 73.6623 18.0427 73.4461 18.034Z" fill="#F4AB01"/>
<path d="M74.4896 17.9825C75.5342 18.7984 76.7234 19.0895 77.9051 19.3996C77.9576 19.4135 78.0128 19.4174 78.0654 19.4315C78.3187 19.4999 78.3733 19.5647 78.3687 19.7861C78.3632 20.0474 78.2536 20.2161 78.022 20.2263C77.7747 20.237 77.5183 20.223 77.2777 20.1674C76.418 19.9695 75.5619 19.7547 74.7077 19.5336C74.4989 19.4796 74.2906 19.3983 74.1028 19.292C73.8126 19.128 73.7363 18.8302 73.9309 18.5589C74.081 18.3498 74.29 18.1843 74.4896 17.9825Z" fill="#F4AB01"/>
<path d="M71.4069 16.9509C70.9345 16.9542 70.7042 16.7156 70.747 16.2866C70.8161 15.595 71.1494 15.039 71.6593 14.5904C71.8977 14.3807 72.1654 14.4446 72.4253 14.5595C72.6691 14.6675 72.8424 14.8335 72.8651 15.1211C72.9222 15.8404 72.2757 16.7503 71.582 16.9228C71.5089 16.9411 71.4328 16.947 71.4069 16.9509Z" fill="#F4AB01"/>
<path d="M70.0635 16.9596C70.0618 16.7177 70.1526 16.6476 70.3702 16.7372C70.5607 16.8153 70.7456 16.911 70.9244 17.0136C71.406 17.2906 71.8778 17.5857 72.3645 17.8529C72.6004 17.9826 72.8608 18.0666 73.1109 18.1694C73.1912 18.2025 73.2774 18.2223 73.3548 18.2602C73.5665 18.3644 73.6406 18.5056 73.5815 18.6753C73.5166 18.8623 73.3079 18.9996 73.1175 18.9408C72.7242 18.8194 72.3188 18.7136 71.9532 18.5301C71.4292 18.2671 70.9384 17.9365 70.4292 17.6422C70.1587 17.4859 70.0879 17.2319 70.0635 16.9596Z" fill="#F4AB01"/>
</svg>
