<svg width="82" height="50" viewBox="0 0 82 50" fill="none" xmlns="http://www.w3.org/2000/svg">
<path d="M31.1266 49.7758C30.8294 49.7355 30.5328 49.6721 30.2345 49.6621C29.9798 49.6535 29.8159 49.5511 29.7147 49.3277C29.593 49.0586 29.4548 48.7944 29.3638 48.5146C29.2741 48.2389 29.35 48.098 29.6049 47.9723C30.2041 47.6767 30.8446 47.5822 31.5036 47.6058C31.7501 47.6145 31.899 47.7603 31.9769 48.0018C32.0902 48.3539 32.2201 48.7008 32.348 49.0479C32.4463 49.3151 32.3788 49.4951 32.1121 49.6077C31.9534 49.6747 31.7861 49.7204 31.6226 49.7758H31.1266Z" fill="#F4AB01"/>
<path d="M72.1858 30.3161C72.1798 30.4246 72.167 30.5332 72.1691 30.6414C72.2022 32.354 72.2383 34.0666 72.2712 35.7792C72.2811 36.2911 72.2877 36.8032 72.2885 37.3152C72.2891 37.6397 72.2187 37.706 71.8999 37.7063C70.8438 37.7072 69.7877 37.7075 68.7316 37.7061C68.4242 37.7057 68.3522 37.6435 68.3572 37.3311C68.3684 36.6237 68.3843 35.9163 68.4146 35.2096C68.4975 33.2749 68.6032 31.3409 68.5375 29.403C68.4888 27.961 68.4345 26.5192 68.3854 25.0771C68.3763 24.8073 68.3768 24.5371 68.3784 24.2671C68.3798 24.0065 68.4177 23.9642 68.6794 23.9381C68.8252 23.9236 68.9726 23.9219 69.1194 23.9194C69.7821 23.9081 70.4372 23.8283 71.0888 23.7094C71.2508 23.6799 71.4171 23.6748 71.5814 23.6575C71.7214 23.6427 71.8326 23.6937 71.9183 23.8054C71.9916 23.9009 72.0671 23.9946 72.1378 24.0919C73.7658 26.3333 75.393 28.5751 77.0211 30.8163C77.0972 30.921 77.172 31.0294 77.2634 31.1196C77.3513 31.2064 77.4598 31.2718 77.5598 31.347C77.6951 31.2371 77.6997 31.1137 77.7015 30.9955C77.7072 30.6234 77.7199 30.2507 77.7061 29.8793C77.6449 28.2513 77.5747 26.6238 77.5096 24.996C77.4996 24.745 77.4876 24.4931 77.4995 24.2426C77.5116 23.9882 77.5784 23.932 77.8202 23.9242C78.8847 23.8896 79.949 23.8538 81.0137 23.8256C81.4149 23.8151 81.4426 23.8415 81.432 24.2477C81.3967 25.597 81.352 26.9461 81.3134 28.2953C81.2867 29.2258 81.2475 30.1562 81.2426 31.0869C81.2318 33.1355 81.2393 35.1841 81.2392 37.2327C81.2391 37.7031 81.2378 37.6896 80.79 37.7234C79.8987 37.7908 79.0102 37.742 78.1208 37.693C77.9637 37.6843 77.8343 37.6336 77.7321 37.5155C77.6537 37.4247 77.5783 37.3308 77.5062 37.2345C75.8286 34.9959 74.1518 32.7567 72.4736 30.5186C72.4103 30.434 72.3327 30.3603 72.2619 30.2815C72.2365 30.293 72.2112 30.3047 72.1858 30.3161Z" fill="#2EC8A6"/>
<path d="M10.4321 31.1982C10.4321 29.6504 10.048 28.7051 9.31075 27.9899C8.18797 26.9008 6.38524 26.8562 5.21868 27.8933C3.75171 29.1975 3.62557 31.1129 4.28678 32.5287C5.28089 34.6574 7.94975 34.8848 9.33141 33.4357C10.0482 32.6841 10.434 31.8006 10.4321 31.1982ZM7.18378 38.0992C3.29624 38.124 0.819686 35.1627 0.341416 32.3294C0.0341754 30.5088 0.185455 28.7376 1.08712 27.0994C2.05242 25.3455 3.46401 24.1163 5.42473 23.6645C7.52676 23.1803 9.52545 23.4476 11.285 24.7964C12.8411 25.9891 13.7774 27.5795 14.0525 29.5494C14.275 31.1436 14.1361 32.7007 13.4224 34.1534C12.4017 36.231 10.7778 37.5487 8.49714 37.9639C8.06529 38.0425 7.62194 38.0559 7.18378 38.0992Z" fill="#2EC8A6"/>
<path d="M48.1816 30.9055C48.1847 29.689 47.8401 28.7556 47.0715 28.0004C45.9553 26.9038 44.1505 26.852 42.9806 27.8841C41.4988 29.1915 41.3737 31.1215 42.0437 32.5412C43.0443 34.6615 45.7117 34.8843 47.0923 33.426C47.7991 32.6796 48.1823 31.8043 48.1816 30.9055ZM44.931 38.0828C41.0481 38.1231 38.5704 35.1637 38.0923 32.3273C37.7852 30.5067 37.9372 28.7354 38.8393 27.0974C39.8051 25.3438 41.2179 24.1186 43.1779 23.6633C45.1458 23.2062 47.0432 23.4131 48.7459 24.5884C50.4635 25.774 51.4955 27.4285 51.7995 29.5241C52.0318 31.1266 51.8911 32.6936 51.1727 34.1554C50.1515 36.2327 48.5261 37.5445 46.247 37.9684C46.0846 37.9985 45.9202 38.0213 45.7557 38.0344C45.4812 38.0561 45.2059 38.0673 44.931 38.0828Z" fill="#2EC8A6"/>
<path d="M19.4307 30.2581C19.5004 30.2885 19.5325 30.3102 19.5674 30.3167C20.1752 30.431 20.7895 30.4792 21.4037 30.4178C21.6917 30.389 21.9834 30.3131 22.2538 30.2072C22.6929 30.0352 22.9725 29.6911 23.0681 29.2227C23.1158 28.9887 23.1347 28.7407 23.1179 28.5025C23.0518 27.5644 22.6333 27.0516 21.7666 26.8365C21.2187 26.7005 20.6588 26.678 20.0976 26.7151C19.9704 26.7235 19.8436 26.7538 19.7195 26.7854C19.5492 26.8288 19.4539 26.9406 19.4493 27.1252C19.4452 27.2926 19.4319 27.4602 19.4315 27.6276C19.4297 28.5012 19.4307 29.3749 19.4307 30.2581ZM27.265 37.67C27.0311 37.6998 26.8616 37.7368 26.6913 37.7405C25.6175 37.7645 24.5438 37.7966 23.4704 37.7139C23.2259 37.695 23.0989 37.5899 23.009 37.36C22.5148 36.098 22.0086 34.8408 21.5019 33.5839C21.3138 33.1176 21.0591 32.9586 20.5682 32.9695C20.293 32.9755 20.0174 32.9708 19.7421 32.9777C19.5519 32.9824 19.5131 33.0117 19.4942 33.2005C19.4756 33.3848 19.4674 33.5727 19.4796 33.7573C19.5458 34.7695 19.6214 35.781 19.6898 36.793C19.7056 37.025 19.7132 37.258 19.7111 37.4904C19.7094 37.6759 19.6864 37.6988 19.504 37.7108C19.1742 37.7323 18.8441 37.7538 18.514 37.7572C17.8529 37.7642 17.1917 37.7629 16.5307 37.756C16.3111 37.7536 16.0901 37.7348 15.8728 37.7023C15.6674 37.6718 15.5869 37.5721 15.5878 37.3598C15.5898 36.9038 15.5976 36.4476 15.6123 35.9918C15.6718 34.1405 15.7705 32.2897 15.786 30.4381C15.7998 28.7915 15.7264 27.144 15.6836 25.4971C15.6736 25.1067 15.6347 24.717 15.6039 24.3274C15.5805 24.0297 15.6412 23.9418 15.9371 23.9059C16.1465 23.8804 16.3577 23.8617 16.5685 23.8571C18.3306 23.8181 20.0926 23.7715 21.8549 23.7517C22.7511 23.7417 23.6292 23.8833 24.4636 24.2385C24.9671 24.4528 25.4269 24.7383 25.8279 25.1163C26.5348 25.7827 26.8947 26.6211 26.9773 27.5819C27.0365 28.2705 26.9963 28.957 26.8475 29.6361C26.7041 30.2914 26.3991 30.8552 25.9304 31.3231C25.689 31.564 25.4215 31.7781 25.1645 32.0027C25.109 32.0513 25.0451 32.0901 24.9909 32.1399C24.8444 32.2743 24.8344 32.3177 24.9209 32.4997C25.1916 33.0696 25.47 33.6358 25.7367 34.2077C26.1875 35.1747 26.6337 36.144 27.0762 37.115C27.1475 37.2716 27.1887 37.4423 27.265 37.67Z" fill="#2EC8A6"/>
<path d="M66.737 20.3616C65.7015 20.4372 64.6959 20.3888 63.6762 20.3727C63.5966 19.9938 63.5275 19.621 63.4399 19.2528C62.0264 13.3026 58.6342 8.88502 53.3665 5.93762C51.3566 4.81287 49.2015 4.09246 46.9304 3.7451C44.9413 3.441 42.9442 3.38567 40.9452 3.63042C37.3585 4.06965 34.1576 5.45256 31.3142 7.70505C28.7225 9.75831 26.7277 12.3027 25.2502 15.2715C24.9447 15.8856 24.6809 16.521 24.3979 17.1467C24.3601 17.2304 24.3234 17.3144 24.244 17.3867C24.3062 17.097 24.3611 16.8056 24.4315 16.5181C25.1217 13.7028 26.376 11.1634 28.1281 8.88038C31.1738 4.91207 35.1043 2.3113 39.9298 1.12265C41.8775 0.642862 43.8577 0.492152 45.8592 0.531377C51.3629 0.639145 56.0898 2.65876 60.06 6.49215C63.0967 9.42407 65.1482 12.9633 66.1981 17.0886C66.4438 18.0544 66.606 19.0353 66.7167 20.0256C66.728 20.1266 66.7293 20.2288 66.737 20.3616Z" fill="#2EC8A6"/>
<path d="M35.343 45.4795C35.4284 45.504 35.5148 45.5253 35.5991 45.5535C37.2954 46.12 39.0299 46.5246 40.8079 46.6855C48.1297 47.348 54.4299 45.0988 59.6541 39.8271C59.7842 39.6958 59.9057 39.642 60.0856 39.6578C60.6982 39.7114 61.3117 39.7556 61.9253 39.7967C62.2438 39.818 62.5632 39.8256 62.9288 39.8412C62.8477 39.9521 62.7881 40.0397 62.7226 40.1226C60.0475 43.516 56.6687 45.8868 52.6087 47.2598C50.1466 48.0924 47.6136 48.4636 45.0206 48.368C41.6805 48.2449 38.5394 47.3823 35.6269 45.7013C35.5253 45.6426 35.4256 45.5804 35.3253 45.5198L35.343 45.4795Z" fill="#2EC8A6"/>
<path d="M34.5127 26.8289C32.9408 26.7966 31.3748 26.9042 29.8101 27.0393C29.4538 27.0701 29.0987 27.1221 28.7419 27.1411C28.4216 27.1583 28.3023 27.0377 28.3044 26.7174C28.3053 26.5711 28.3313 26.4196 28.3755 26.2801C28.6284 25.4819 28.9505 24.7118 29.301 23.9526C29.4244 23.6851 29.6069 23.5874 29.8872 23.5979C30.7313 23.6294 31.5756 23.65 32.42 23.6731C33.4866 23.7022 34.5487 23.6219 35.6102 23.5321C36.3511 23.4695 37.0913 23.3985 37.832 23.3353C38.1755 23.3059 38.2678 23.3947 38.2356 23.7461C38.2196 23.9201 38.1921 24.1045 38.1191 24.2597C37.7867 24.9664 37.6662 25.7282 37.5231 26.4854C37.463 26.8029 37.4324 26.8271 37.1019 26.828C36.2388 26.8305 35.3757 26.8289 34.5127 26.8289Z" fill="#2EC8A6"/>
<path d="M56.4153 29.9763C56.9032 30.0046 57.4626 30.0469 57.992 30.2533C58.1786 30.3261 58.3654 30.4151 58.5274 30.532C58.851 30.7657 58.9854 31.1039 58.9637 31.5036C58.9522 31.7147 58.8726 31.7919 58.6643 31.7699C58.5109 31.7536 58.3589 31.7098 58.2101 31.6651C58.0609 31.6203 57.9175 31.5562 57.7699 31.5055C57.5452 31.4284 57.3529 31.4768 57.2073 31.6731C57.1301 31.7771 57.0616 31.8878 56.9852 31.9922C56.8705 32.1491 56.7625 32.3128 56.6339 32.4571C55.9333 33.2439 54.5094 33.0845 54.1087 31.9545C54.0286 31.7287 53.9713 31.4908 53.936 31.2535C53.8988 31.0041 53.9771 30.8968 54.2152 30.8108C54.3877 30.7484 54.5658 30.7021 54.7419 30.6505C55.0984 30.5461 55.4302 30.4023 55.6987 30.1264C55.8563 29.9646 55.9201 29.9637 56.4153 29.9763Z" fill="#F4AB01"/>
<path d="M33.5143 30.9456C34.1657 31.0109 34.8255 31.0507 35.4763 31.1501C36.0181 31.233 36.0831 31.4058 35.8428 31.9138C35.6632 32.293 35.6361 32.6721 35.7719 33.075C35.9693 33.6609 35.7322 33.9792 35.1167 33.9499C34.77 33.9334 34.4228 33.8884 34.0804 33.8291C33.6397 33.753 33.203 33.652 32.7659 33.5561C32.6777 33.5368 32.5898 33.5021 32.5106 33.4583C32.2902 33.3363 32.2481 33.2395 32.3461 33.0067C32.4737 32.7032 32.4588 32.411 32.3321 32.1157C32.2956 32.0305 32.261 31.9443 32.2301 31.8569C32.0938 31.471 32.2391 31.1623 32.6356 31.0677C32.9185 31.0002 33.2135 30.9854 33.5143 30.9456Z" fill="#F4AB01"/>
<path d="M34.736 37.2549C34.5749 37.2119 34.3555 37.1737 34.1514 37.0947C33.5872 36.8766 33.0261 36.6492 32.4713 36.4075C32.3246 36.3436 32.1912 36.2293 32.0763 36.1132C31.8816 35.9169 31.8898 35.6903 32.0976 35.5089C32.3045 35.328 32.4092 35.1023 32.4543 34.8376C32.4839 34.6635 32.5123 34.4889 32.5543 34.3178C32.612 34.0824 32.7234 33.9799 32.9625 33.9871C33.2545 33.9959 33.5563 33.9972 33.8345 34.0741C34.3545 34.2176 34.8614 34.4103 35.3716 34.5892C35.4832 34.6283 35.5888 34.6891 35.6911 34.7503C36.0224 34.9485 36.0929 35.2362 35.8245 35.5056C35.4508 35.8805 35.2671 36.3128 35.2274 36.8388C35.203 37.1624 35.0479 37.2765 34.736 37.2549Z" fill="#F4AB01"/>
<path d="M33.0911 30.6666C32.8543 30.6666 32.5428 30.6709 32.2314 30.6654C31.9213 30.66 31.8251 30.542 31.8599 30.2259C31.864 30.1891 31.8719 30.1526 31.8795 30.1163C31.967 29.6955 31.9318 29.3057 31.6251 28.9717C31.5522 28.8925 31.5035 28.7855 31.4598 28.6842C31.3758 28.4896 31.4113 28.3615 31.6008 28.2672C32.1353 28.0013 32.6903 27.8568 33.2991 27.9277C33.7588 27.9812 34.1884 28.1335 34.6285 28.2532C34.895 28.3255 34.9291 28.3698 34.934 28.6376C34.9406 29.0125 35.0145 29.3543 35.2993 29.6242C35.3629 29.6845 35.4023 29.7779 35.4355 29.8631C35.5046 30.0396 35.4728 30.1764 35.32 30.279C35.0752 30.4433 34.82 30.5842 34.5112 30.5946C34.0626 30.6094 33.6147 30.6393 33.0911 30.6666Z" fill="#F4AB01"/>
<path d="M32.8337 39.8522C32.7912 39.8411 32.6834 39.8194 32.5799 39.7844C32.0023 39.5892 31.4738 39.2923 30.9635 38.9617C30.8103 38.8624 30.6685 38.7401 30.5372 38.6117C30.2373 38.3188 30.2444 38.1715 30.5158 37.8577C30.6533 37.6986 30.7715 37.5198 30.8801 37.3387C30.9457 37.2295 30.9766 37.0987 31.0221 36.9771C31.0479 36.9077 31.0662 36.8349 31.0969 36.7677C31.1772 36.5925 31.2662 36.5295 31.445 36.5771C32.0197 36.7306 32.5965 36.8804 33.1609 37.0673C33.5964 37.2117 33.9455 37.5023 34.2256 37.8735C34.3907 38.0922 34.3853 38.2103 34.1792 38.3978C34.0702 38.4969 33.9514 38.5852 33.8347 38.6749C33.6216 38.8384 33.473 39.0394 33.4371 39.3171C33.4266 39.3987 33.3956 39.479 33.3651 39.5563C33.2687 39.8011 33.1667 39.8649 32.8337 39.8522Z" fill="#F4AB01"/>
<path d="M30.0328 44.7996C29.321 44.7643 28.6259 44.6114 27.9504 44.3618C27.9161 44.3491 27.8824 44.3344 27.8496 44.3182C27.4719 44.131 27.4059 43.9879 27.5442 43.5863C27.6805 43.1902 27.7878 42.7918 27.8261 42.3706C27.8583 42.0161 28.1104 41.8229 28.4601 41.8715C29.2232 41.9776 29.9735 42.1501 30.7042 42.3975C31.1641 42.5533 31.2767 42.9669 30.9567 43.3384C30.7699 43.5553 30.7002 43.7789 30.7636 44.0539C30.7759 44.1076 30.7777 44.1646 30.7785 44.2201C30.784 44.5977 30.6029 44.7895 30.2326 44.7993C30.1685 44.8011 30.1043 44.7996 30.0328 44.7996Z" fill="#F4AB01"/>
<path d="M30.7107 16.6237C30.7917 16.7918 30.8188 16.9123 30.7257 17.0516C30.3367 17.6341 30.3172 18.2909 30.3777 18.9591C30.3911 19.1064 30.4343 19.2508 30.4586 19.3974C30.5664 20.0457 30.9527 20.4636 31.5339 20.7053C31.7614 20.8 32.0078 20.8469 32.2427 20.9246C32.4421 20.9906 32.6498 21.0466 32.8317 21.1479C33.1838 21.3438 33.3808 21.6604 33.4215 22.0691C33.4318 22.1707 33.4343 22.2706 33.3284 22.3402C33.0217 22.5421 32.719 22.7505 32.4162 22.9553C32.0874 22.7911 32.1838 22.3887 31.9364 22.1627C31.887 22.3436 31.8498 22.51 31.7948 22.6701C31.7593 22.7733 31.7137 22.8811 31.6446 22.9623C31.4337 23.2099 31.2133 23.2071 30.9911 22.9711C30.7526 22.7177 30.5794 22.4237 30.4747 22.091C30.4014 21.8583 30.4464 21.7878 30.6664 21.6944C30.722 21.6708 30.7922 21.5994 30.7929 21.5491C30.7935 21.4983 30.7259 21.4242 30.6712 21.3996C30.5639 21.3515 30.4464 21.3193 30.33 21.3012C30.1286 21.2698 30.0057 21.1576 29.9163 20.9761C29.7525 20.6432 29.758 20.2899 29.7854 19.9378C29.8086 19.6389 29.7919 19.3465 29.7658 19.0486C29.6827 18.0975 30.0151 17.3037 30.7107 16.6237Z" fill="#F4AB01"/>
<path d="M31.0713 42.1738C31.0352 42.1644 30.9423 42.1537 30.8609 42.1167C30.1911 41.8133 29.5239 41.5039 28.8547 41.199C28.7075 41.1319 28.5907 41.0355 28.5057 40.8957C28.3753 40.6814 28.3817 40.5208 28.5521 40.3405C28.6468 40.2405 28.7519 40.1469 28.8649 40.0692C29.0647 39.9319 29.1949 39.7524 29.258 39.5168C29.2868 39.4097 29.3226 39.3025 29.3703 39.2027C29.4875 38.9567 29.6646 38.8641 29.9311 38.9064C30.0393 38.9237 30.1467 38.9516 30.2518 38.984C30.9178 39.1883 31.5205 39.5191 32.075 39.9412C32.1761 40.0182 32.2694 40.1144 32.3424 40.2189C32.496 40.4386 32.4675 40.634 32.2656 40.8114C32.1901 40.8776 32.102 40.9311 32.0149 40.9818C31.7668 41.126 31.6221 41.338 31.5827 41.6258C31.5715 41.7083 31.5574 41.7919 31.532 41.8707C31.4604 42.093 31.3544 42.1688 31.0713 42.1738Z" fill="#F4AB01"/>
<path d="M58.3425 30.1458C57.7148 30.103 57.1938 29.9536 56.7216 29.6738C56.4536 29.515 56.1944 29.4951 55.9047 29.5484C55.7345 29.5797 55.5575 29.5927 55.3848 29.5848C55.1553 29.5745 55.0206 29.4209 55.0624 29.1931C55.1158 28.9017 55.1962 28.6135 55.2889 28.3321C55.3476 28.1535 55.4857 28.0906 55.7233 28.1324C56.0117 28.1833 56.3039 28.2397 56.5781 28.3394C57.0083 28.4957 57.4202 28.4689 57.8431 28.3242C58.2514 28.1846 58.6654 28.0619 59.0782 27.9362C59.1831 27.9042 59.2917 27.8797 59.4003 27.867C59.6427 27.8387 59.7376 27.9288 59.7344 28.1821C59.7333 28.2744 59.723 28.3688 59.7005 28.4581C59.6237 28.7637 59.5438 29.0686 59.457 29.3714C59.3693 29.6777 59.167 29.8918 58.8792 30.0039C58.6849 30.0796 58.4743 30.1122 58.3425 30.1458Z" fill="#F4AB01"/>
<path d="M67.7652 31.947C67.7479 32.3962 67.5364 32.7419 67.2079 33.0259C67.0949 33.1236 66.9738 33.1328 66.8552 33.0468C66.6689 32.9119 66.4725 32.7858 66.3082 32.6264C65.802 32.1351 65.2011 31.8483 64.5236 31.6912C64.2043 31.6172 63.8905 31.5061 63.5864 31.3814C63.2999 31.264 63.2283 31.0824 63.2908 30.7759C63.3599 30.4368 63.5196 30.1455 63.7739 29.9189C63.8874 29.8176 64.0302 29.7383 64.1728 29.6854C64.3889 29.6052 64.5001 29.6536 64.5889 29.8741C64.7426 30.2554 65.0212 30.5121 65.3476 30.7323C65.9977 31.171 66.7027 31.4681 67.4735 31.6046C67.7396 31.6517 67.7743 31.6989 67.7652 31.947Z" fill="#F4AB01"/>
<path d="M29.4052 47.5962C28.6866 47.6029 28.6314 47.5665 28.5581 47.0122C28.5089 46.6395 28.4451 46.2775 28.2347 45.9583C28.2246 45.9429 28.2186 45.9248 28.2114 45.9078C28.0673 45.5677 28.139 45.4128 28.4981 45.3634C29.1069 45.2798 29.7175 45.2068 30.329 45.1474C30.6891 45.1124 30.7685 45.1922 30.8073 45.55C30.8433 45.8827 30.9663 46.1756 31.1666 46.4416C31.471 46.8458 31.4107 47.078 30.9396 47.2671C30.3976 47.4845 29.8264 47.568 29.4052 47.5962Z" fill="#F4AB01"/>
<path d="M61.8705 31.496C61.8452 31.4912 61.7869 31.4907 61.7382 31.4686C61.5046 31.3628 61.2661 31.2649 61.044 31.1378C60.7935 30.9949 60.7631 30.8202 60.9441 30.5869C61.2217 30.2295 61.5156 29.8853 61.7988 29.5324C61.9352 29.3626 62.1056 29.2449 62.2966 29.1474C62.4097 29.0896 62.5089 29.0661 62.6331 29.1193C62.8183 29.1982 63.0148 29.2495 63.201 29.3262C63.6119 29.4956 63.6538 29.6715 63.3684 30.008C63.249 30.1488 63.121 30.2819 63.0002 30.4217C62.7468 30.7147 62.4933 31.0076 62.2452 31.305C62.152 31.4167 62.0526 31.5034 61.8705 31.496Z" fill="#F4AB01"/>
<path d="M62.7495 31.4527C63.6295 32.1401 64.6312 32.3853 65.6267 32.6465C65.6709 32.6582 65.7174 32.6615 65.7617 32.6734C65.9751 32.731 66.0211 32.7856 66.0172 32.9721C66.0126 33.1922 65.9202 33.3343 65.7252 33.3429C65.5169 33.352 65.3009 33.3401 65.0982 33.2933C64.3739 33.1266 63.6528 32.9457 62.9332 32.7593C62.7573 32.7139 62.5819 32.6454 62.4237 32.5559C62.1792 32.4177 62.1149 32.1668 62.2788 31.9383C62.4053 31.7622 62.5814 31.6227 62.7495 31.4527Z" fill="#F4AB01"/>
<path d="M60.1527 30.5836C59.7548 30.5864 59.5607 30.3854 59.5968 30.024C59.655 29.4414 59.9358 28.973 60.3653 28.5951C60.5661 28.4185 60.7916 28.4723 61.0106 28.5691C61.2159 28.6601 61.3619 28.7999 61.381 29.0422C61.4292 29.6481 60.8846 30.4146 60.3002 30.56C60.2386 30.5753 60.1745 30.5803 60.1527 30.5836Z" fill="#F4AB01"/>
<path d="M59.021 30.5909C59.0195 30.3872 59.096 30.3281 59.2793 30.4036C59.4398 30.4693 59.5955 30.5499 59.7462 30.6364C60.1519 30.8697 60.5493 31.1183 60.9593 31.3434C61.158 31.4527 61.3774 31.5235 61.5881 31.6101C61.6557 31.6379 61.7283 31.6546 61.7935 31.6866C61.9719 31.7743 62.0343 31.8932 61.9845 32.0362C61.9298 32.1937 61.754 32.3094 61.5936 32.2599C61.2623 32.1576 60.9208 32.0685 60.6128 31.9139C60.1714 31.6923 59.758 31.4138 59.329 31.1659C59.1012 31.0343 59.0415 30.8203 59.021 30.5909Z" fill="#F4AB01"/>
</svg>
