<svg width="50" height="51" viewBox="0 0 50 51" fill="none" xmlns="http://www.w3.org/2000/svg">
<g opacity="0.2">
<path d="M43.2267 25.6636V20.1822C43.2267 18.3235 41.785 16.8119 39.9635 16.6654L34.8731 7.77416C34.4014 6.95185 33.6396 6.36412 32.7282 6.12007C31.821 5.87768 30.8724 6.00498 30.0605 6.47754L12.6102 16.6368H9.54542C7.59011 16.6368 6 18.2268 6 20.1822V41.4546C6 43.4099 7.59003 45 9.54542 45H39.6813C41.6366 45 43.2267 43.41 43.2267 41.4546V35.9732C44.2562 35.6061 44.9994 34.6315 44.9994 33.4774V28.1593C44.9994 27.0053 44.2562 26.0307 43.2267 25.6636ZM30.9528 8.00957C31.3544 7.77499 31.8228 7.71267 32.2694 7.83216C32.7221 7.95331 33.0995 8.24589 33.3341 8.6553L35.0612 11.6721C34.2735 12.0222 33.4327 12.205 32.5906 12.205C30.6869 12.205 28.9426 11.3411 27.7717 9.86151L30.9528 8.00957ZM26.2319 10.7579C27.7355 12.7849 30.0501 13.9778 32.5906 13.9778C33.7406 13.9778 34.8807 13.7067 35.9402 13.2073L37.9037 16.6368H16.1335L26.2319 10.7579ZM41.454 41.4546C41.454 42.4318 40.6585 43.2272 39.6813 43.2272H9.54542C8.56822 43.2272 7.77275 42.4318 7.77275 41.4546V20.1822C7.77275 19.205 8.56822 18.4095 9.54542 18.4095H39.6813C40.6585 18.4095 41.454 19.205 41.454 20.1822V25.5003H36.1359C33.2033 25.5003 30.8178 27.8858 30.8178 30.8184C30.8178 33.751 33.2033 36.1365 36.1359 36.1365H41.454V41.4546ZM43.2267 33.4774C43.2267 33.9664 42.8295 34.3638 42.3404 34.3638H36.1359C34.1806 34.3638 32.5905 32.7738 32.5905 30.8184C32.5905 28.8631 34.1805 27.273 36.1359 27.273H42.3404C42.8294 27.273 43.2267 27.6702 43.2267 28.1593V33.4774Z" fill="black" stroke="black" stroke-width="0.2"/>
<path d="M36.1353 29.0457C35.1581 29.0457 34.3627 29.8412 34.3627 30.8184C34.3627 31.7956 35.1581 32.5911 36.1353 32.5911C37.1125 32.5911 37.908 31.7956 37.908 30.8184C37.9081 29.8412 37.1126 29.0457 36.1353 29.0457Z" fill="black" stroke="black" stroke-width="0.2"/>
</g>
</svg>
